ply
format ascii 1.0
comment Exported by Aspose.3D 23.9.0
element vertex 228
property float x
property float y
property float z
property float nx
property float ny
property float nz
element face 452
property list uchar int vertex_index
end_header
9.329601287841797 4.245120048522949 -66 0.5407990217208862 0.2580437481403351 0.4
8.812336921691895 5.234999179840088 -66 0.5095128417015076 0.3153519153594971 0.4
-2.564096689224243 9.924107551574707 -66 -0.2774559391869439 0.13976985216140747 0.5555555555555556
8.19044303894043 6.162722587585449 -66 0.3484891772270203 0.1934859395027161 0.6000000000000001
-2.67572283744812 10.249858856201172 -66 -0.4625375469525655 -0.18880487978458405 0.5
3.875185012817383 15.745118141174316 -66 0.39999017450544566 0.19337216350767347 0.5555555555555556
-2.8149521350860596 10.564801216125488 -66 -0.5335021615028381 -0.273464035987854 0.4
-4.650793552398682 9.134145736694336 -66 -0.28155031204223635 0.528941297531128 0.4
-5.6173248291015625 8.573690414428711 -66 -0.33744789361953736 0.4951549053192139 0.4
9.736093521118164 3.2048377990722656 -66 0.14141606092453005 0.049417930841445926 0.8500000000000001
-9.329924583435059 -4.244410037994385 -66 -0.5408165335655213 -0.25800576210021975 0.4
-8.812536239624023 -5.234663963317871 -66 -0.5095223307609559 -0.31533549427986146 0.4
2.5708961486816406 -9.922348022460938 -66 0.2777858376502991 -0.14027882946862114 0.5555555555555556
-8.19044303894043 -6.162722587585449 -66 -0.3484912753105164 -0.19348279237747193 0.6000000000000001
2.687006950378418 -10.264118194580078 -66 0.4624737799167633 0.1888534327348073 0.5
-3.875185012817383 -15.745118141174316 -66 -0.39999017450544566 -0.19337216350767347 0.5555555555555556
2.8334543704986572 -10.594030380249023 -66 0.5322793841362 0.27573029398918153 0.4
4.656355857849121 -9.131311416625977 -66 0.2818696081638336 -0.5287718534469604 0.4
5.622219085693359 -8.570481300354004 -66 0.33772754669189453 -0.4949648976325989 0.4
-9.736459732055664 -3.203725814819336 -66 -0.14142126441001893 -0.049402607977390295 0.8500000000000001
6.521329879760742 -7.90789270401001 -66 0.3895759582519531 -0.4552809000015259 0.4
3.635206699371338 -9.583724975585938 -66 0.22266469597816468 -0.5563007950782776 0.4
-3.6290040016174316 9.586074829101562 -66 -0.22230794429779055 0.5564428567886353 0.4
-8.074624061584473 6.313710689544678 -66 -0.4786726236343384 0.36044695377349856 0.4
-8.713839530944824 5.397360801696777 -66 -0.5150600910186768 0.30620676279067993 0.4
7.343010902404785 -7.151412010192871 -66 0.43679877519607546 -0.4101913928985596 0.4
8.077507972717285 -6.31002140045166 -66 0.4788353800773621 -0.36023161411285404 0.4
8.71609878540039 -5.393711566925049 -66 0.5151867628097534 -0.3059946775436402 0.4
9.251202583312988 -4.413360595703125 -66 0.5454212307929993 -0.24812461733818056 0.4
9.676465034484863 -3.3806097507476807 -66 0.5691797614097596 -0.18730868101119996 0.4
9.986837387084961 -2.3077199459075928 -66 0.586180341243744 -0.1242688536643982 0.4
-6.517114162445068 7.9113664627075195 -66 -0.38933579921722417 0.45548561811447147 0.4
-7.339470863342285 7.155045032501221 -66 -0.43659791946411136 0.4104043602943421 0.4
-9.249521255493164 4.416882038116455 -66 -0.5453277707099915 0.24832865595817566 0.4
-9.67530632019043 3.383924722671509 -66 -0.5691161990165711 0.18749994039535522 0.4
-9.98613452911377 2.3107614517211914 -66 -0.5861427545547485 0.1244434118270874 0.4
-4.25 14 -66 -0.21418016723224093 0.0038816207753760473 0.7857142857142857
-4.25 13.91174602508545 -66 -0.5995237588882446 -0.019513466954231264 0.4
3.4073660373687744 16.540149688720703 -66 0.18224362226632926 0.14107412558335525 0.7692307692307693
-4.230961799621582 13.52194595336914 -66 -0.5954825282096863 -0.06811049729585648 0.4
10.178634643554688 -1.2074307203292847 -66 0.596221137046814 -0.059753587841987615 0.4
10.249580383300781 -0.09280522167682648 -66 0.5991829395294189 0.005471624433994293 0.4
10.198829650878906 1.022922158241272 -66 0.5950305581092835 0.07063145637512207 0.4
-10.199024200439453 -1.0209808349609375 -66 -0.5950429439544678 -0.0705221377313137 0.4
-10.027310371398926 -2.1249773502349854 -66 -0.5838324427604675 -0.13486722111701965 0.4
10.02698802947998 2.1265041828155518 -66 0.5838132739067078 0.13495261073112488 0.4
-10.178312301635742 1.210142970085144 -66 -0.5962050437927247 0.05990863144397736 0.4
-10.249558448791504 0.09514626860618591 -66 -0.5991835832595825 -0.005338512361049652 0.4
-3.948997735977173 12.389439582824707 -66 -0.5504758477210999 -0.23709654808044434 0.4
-3.7830429077148438 12.03621768951416 -66 -0.5247506737709046 -0.2896121382713318 0.4
-4.174027919769287 13.135855674743652 -66 -0.5860108017921448 -0.1258164495229721 0.4
-4.079740524291992 12.757152557373047 -66 -0.5709610104560853 -0.18232394754886627 0.4
-3.5834567546844482 11.700848579406738 -66 -0.4940303206443787 -0.3393707275390625 0.4
-3.3521389961242676 11.386527061462402 -66 -0.31940065622329716 -0.24075329303741455 0.6000000000000001
3.662909507751465 16.155363082885742 -66 0.4257006545861562 0.26100325087706244 0.5
-3.171895980834961 11.153026580810547 -66 -0.40249672532081604 -0.29619701703389484 0.5
-2.980752944946289 10.866602897644043 -66 -0.5080057501792908 -0.31833519339561467 0.4
1.9754092693328857 -17.763011932373047 -66 0.28809224963188174 -0.5254121541976929 0.4
2.3721206188201904 -17.52640724182129 -66 0.34341053962707524 -0.49104396104812625 0.4
-3.4073660373687744 -16.540149688720703 -66 -0.09871529539426167 -0.07641515135765076 0.875
3.7830429077148438 -12.03621768951416 -66 0.5247506737709046 0.2896121382713318 0.4
3.5834567546844482 -11.700848579406738 -66 0.4940303206443787 0.3393707275390625 0.4
3.3521389961242676 -11.386527061462402 -66 0.3186699151992798 0.2416941523551941 0.6000000000000001
-3.662909507751465 -16.155363082885742 -66 -0.4257006545861562 -0.26100325087706244 0.5
3.2123522758483887 -11.207649230957031 -66 0.40036213397979736 0.29912424087524414 0.5
3.0090460777282715 -10.909396171569824 -66 0.505255949497223 0.3225910604000092 0.4
3.1115736961364746 16.894929885864258 -66 0.4312280058860779 0.41604969501495365 0.4
2.7790257930755615 17.215511322021484 -66 0.38352994918823247 0.46039096117019657 0.4
2.4136509895324707 17.498111724853516 -66 0.33130171298980715 0.49929370880126955 0.4
1.1653528213500977 18.087108612060547 -66 0.1538252651691437 0.5791310787200928 0.4
0.7149192690849304 18.189437866210938 -66 0.09006775617599488 0.5924042701721192 0.4
4.25 -13.91174602508545 -66 0.5995237588882446 0.019513466954231264 0.4
4.230961799621582 -13.52194595336914 -66 0.5954825282096863 0.06811049729585648 0.4
4.174027919769287 -13.135855674743652 -66 0.5860108017921448 0.1258164495229721 0.4
-4.149890899658203 14.917008399963379 -66 -0.5873463153839111 0.11865639686584473 0.4
-4.224898815155029 14.461228370666504 -66 -0.5967544078826904 0.05421425551176071 0.4
-0.20586219429969788 18.245012283325195 -66 -0.024922714743297547 0.3736772909760475 0.625
0.2560407817363739 18.242280960083008 -66 0.02524490747600794 0.5986799359321594 0.4
-4.025863170623779 15.361957550048828 -66 -0.2379167427619298 0.07570706307888031 0.75
-0.6653333902359009 18.19759750366211 -66 -0.10452579557895661 0.5900248885154724 0.4
-1.1169453859329224 18.100601196289062 -66 -0.16793901920318605 0.5751969695091248 0.4
-2.7790257930755615 -17.215511322021484 -66 -0.38352994918823247 -0.46039096117019657 0.4
-2.4136509895324707 -17.498111724853516 -66 -0.33130171298980715 -0.49929370880126955 0.4
1.555363655090332 -17.955167770385742 -66 0.11468557417392732 -0.2767868280410767 0.7000000000000001
4.079740524291992 -12.757152557373047 -66 0.5709610104560853 0.18232394754886627 0.4
3.948997735977173 -12.389439582824707 -66 0.5504758477210999 0.23709654808044434 0.4
2.0197651386260986 17.739391326904297 -66 0.2751598596572876 0.5322988629341125 0.4
1.6020208597183228 17.936500549316406 -66 0.21576647758483888 0.5590167999267578 0.4
-1.555363655090332 17.955167770385742 -66 -0.22937114834785463 0.5535736560821534 0.4
-1.9754092693328857 17.763011932373047 -66 -0.28809224963188174 0.5254121541976929 0.4
-2.3721206188201904 17.52640724182129 -66 -0.34341053962707524 0.49104396104812625 0.4
-3.1115736961364746 -16.894929885864258 -66 -0.4312280058860779 -0.41604969501495365 0.4
0.6653333902359009 -18.19759750366211 -66 0.07466128255639758 -0.4214463489396231 0.5714285714285714
1.1169453859329224 -18.100601196289062 -66 0.16793901920318605 -0.5751969695091248 0.4
-1.6020208597183228 -17.936500549316406 -66 -0.15411891256059917 -0.39929771423339844 0.5714285714285714
-2.0197651386260986 -17.739391326904297 -66 -0.2751598596572876 -0.5322988629341125 0.4
-1.1653528213500977 -18.087108612060547 -66 -0.1538252651691437 -0.5791310787200928 0.4
-0.7149192690849304 -18.189437866210938 -66 -0.07505646347999573 -0.4936702251434326 0.5
0.20586219429969788 -18.245012283325195 -66 0.03987634358927608 -0.597883665561676 0.4
-0.2560407817363739 -18.242280960083008 -66 -0.03155613434500992 -0.7483499199151993 0.25
2.740811347961426 -17.248146057128906 -66 0.3946729183197022 -0.45087503194808964 0.4
3.0771262645721436 -16.931516647338867 -66 0.4412728548049927 -0.4053804278373718 0.4
3.3770933151245117 -16.580259323120117 -66 0.4826600193977356 -0.3550976514816284 0.4
4.025863170623779 -15.361957550048828 -66 0.5710001826286316 -0.18169695138931274 0.4
4.149890899658203 -14.917008399963379 -66 0.5873463153839111 -0.11865639686584473 0.4
-2.740811347961426 17.248146057128906 -66 -0.3946729183197022 0.45087503194808964 0.4
-3.0771262645721436 16.931516647338867 -66 -0.3677273790041605 0.3378170231978098 0.5
-3.8542797565460205 15.790816307067871 -66 -0.456590990225474 0.20215943952401477 0.5
-3.3770933151245117 16.580259323120117 -66 -0.4826600193977356 0.3550976514816284 0.4
-3.6371686458587646 16.198522567749023 -66 -0.6479328125715256 0.3757745176553726 0.25
4.224898815155029 -14.461228370666504 -66 0.5967544078826904 -0.05421425551176071 0.4
4.25 -14 -66 0.5997044682502747 -0.010868538171052933 0.4
3.6371686458587646 -16.198522567749023 -66 0.5183462500572205 -0.3006196141242981 0.4
3.8542797565460205 -15.790816307067871 -66 0.5479091882705689 -0.24259132742881775 0.4
-4.25 13.91174602508545 -71 -0.5997618794441223 -0.009756733477115632 -0.4
-4.25 14 -71 -0.2997044682502747 0.010868538171052933 -0.7000000000000001
-3.3521389961242676 11.386527061462402 -71 -0.5323344270388285 -0.4012554883956909 -0.3333333333333333
-3.5834567546844482 11.700848579406738 -71 -0.5048158049583436 -0.32310904264450074 -0.4
-3.7830429077148438 12.03621768951416 -71 -0.5339000582695007 -0.27237691879272463 -0.4
-3.948997735977173 12.389439582824707 -71 -0.5579022526741028 -0.21905139684677125 -0.4
-4.079740524291992 12.757152557373047 -71 -0.5765933632850647 -0.16364164948463442 -0.4
-4.174027919769287 13.135855674743652 -71 -0.5897958874702454 -0.1066735476255417 -0.4
-4.230961799621582 13.52194595336914 -71 -0.5973840832710267 -0.048690348863601685 -0.4
-3.171895980834961 11.153026580810547 -71 -0.40919584035873413 -0.2868711451689402 -0.5
3.2123522758483887 -11.207649230957031 -71 0.4067535102367401 0.29037344455718994 -0.5
3.3521389961242676 -11.386527061462402 -71 0.5311165253321329 0.4028235872586568 -0.3333333333333333
2.5708961486816406 -9.922348022460938 -71 0.17857660991804938 -0.09017924751554215 -0.7142857142857142
2.687006950378418 -10.264118194580078 -71 0.5615391612052918 0.20981500744819642 -0.4
2.8334543704986572 -10.594030380249023 -71 0.5403386473655701 0.25958176255226134 -0.4
3.0090460777282715 -10.909396171569824 -71 0.4289483626683553 0.25602911909421283 -0.5
3.875185012817383 15.745118141174316 -71 0.2571365407535008 0.12431067654064723 -0.7142857142857142
8.19044303894043 6.162722587585449 -71 0.5808152953783671 0.3224765658378601 -0.3333333333333333
8.812336921691895 5.234999179840088 -71 0.5206431031227112 0.2966157793998718 -0.4
9.329601287841797 4.245120048522949 -71 0.45818723241488135 0.1985065440336863 -0.5
9.736093521118164 3.2048377990722656 -71 0.15065214508458186 0.04657144452396192 -0.8421052631578947
10.02698802947998 2.1265041828155518 -71 0.5883344888687134 0.11363396644592286 -0.4
10.198829650878906 1.022922158241272 -71 0.597205412387848 0.04894759058952332 -0.4
10.249580383300781 -0.09280522167682648 -71 0.5989856123924255 -0.016320475935935976 -0.4
10.178634643554688 -1.2074307203292847 -71 0.5936539888381959 -0.08139459937810899 -0.4
9.986837387084961 -2.3077199459075928 -71 0.5812738418579102 -0.14550209641456605 -0.4
9.676465034484863 -3.3806097507476807 -71 0.5619921803474427 -0.20788202285766602 -0.4
9.251202583312988 -4.413360595703125 -71 0.5360378623008728 -0.26779386997222904 -0.4
8.71609878540039 -5.393711566925049 -71 0.5037190318107605 -0.3245262324810028 -0.4
8.077507972717285 -6.31002140045166 -71 0.4654194593429566 -0.37740544080734256 -0.4
7.343010902404785 -7.151412010192871 -71 0.4215940117835999 -0.4258035182952881 -0.4
6.521329879760742 -7.90789270401001 -71 0.372762668132782 -0.4691461563110352 -0.4
5.622219085693359 -8.570481300354004 -71 0.31950571537017824 -0.5069183826446534 -0.4
4.656355857849121 -9.131311416625977 -71 0.2624553322792053 -0.5386718392372132 -0.4
3.635206699371338 -9.583724975585938 -71 0.16857361296812692 -0.4700248042742411 -0.5
-4.224898815155029 14.461228370666504 -71 -0.594395411014557 0.07582289651036263 -0.4
-4.149890899658203 14.917008399963379 -71 -0.582656216621399 0.13988125622272493 -0.4
-4.025863170623779 15.361957550048828 -71 -0.5640342473983765 0.2022877871990204 -0.4
-3.8542797565460205 15.790816307067871 -71 -0.5387500643730164 0.2623040318489075 -0.4
-3.6371686458587646 16.198522567749023 -71 -0.5071015596389771 0.319222491979599 -0.4
-3.3770933151245117 16.580259323120117 -71 -0.46946316957473755 0.372369933128357 -0.4
-3.0771262645721436 16.931516647338867 -71 -0.42627938985824587 0.4211186408996582 -0.4
-2.740811347961426 17.248146057128906 -71 -0.3780599117279053 0.46489320993423466 -0.4
-2.3721206188201904 17.52640724182129 -71 -0.32537417411804204 0.5031765341758728 -0.4
-1.9754092693328857 17.763011932373047 -71 -0.26884669065475464 0.5355152010917664 -0.4
-1.555363655090332 17.955167770385742 -71 -0.20914116501808167 0.5615290641784668 -0.4
-1.1169453859329224 18.100601196289062 -71 -0.14696685671806337 0.5809094667434692 -0.4
-0.6653333902359009 18.19759750366211 -71 -0.08305689692497253 0.5934278130531311 -0.4
-0.20586219429969788 18.245012283325195 -71 -0.018164688907563686 0.5989365935325622 -0.4
0.2560407817363739 18.242280960083008 -71 0.046942849177867174 0.5973703503608704 -0.4
0.7149192690849304 18.189437866210938 -71 0.11149472147226334 0.588747775554657 -0.4
1.1653528213500977 18.087108612060547 -71 0.21841105446219444 0.7164635956287384 -0.25
1.6020208597183228 17.936500549316406 -71 0.0561667936188834 0.13114831561133974 -0.8571428571428571
2.0197651386260986 17.739391326904297 -71 0.29428513050079347 0.5219686746597291 -0.4
2.4136509895324707 17.498111724853516 -71 0.349193024635315 0.4869489312171936 -0.4
2.7790257930755615 17.215511322021484 -71 0.3999755620956421 0.44617776870727544 -0.4
3.1115736961364746 16.894929885864258 -71 0.44603483676910405 0.400134813785553 -0.4
3.4073660373687744 16.540149688720703 -71 0.17386613147599356 0.12477340017046247 -0.7857142857142857
3.662909507751465 16.155363082885742 -71 0.4348872105280558 0.24539123972256977 -0.5
4.25 -14 -71 0.1665024823612637 -0.006038076761696073 -0.8333333333333333
4.224898815155029 -14.461228370666504 -71 0.594395411014557 -0.07582289651036263 -0.4
4.149890899658203 -14.917008399963379 -71 0.582656216621399 -0.13988125622272493 -0.4
4.025863170623779 -15.361957550048828 -71 0.5640342473983765 -0.2022877871990204 -0.4
3.8542797565460205 -15.790816307067871 -71 0.5387500643730164 -0.2623040318489075 -0.4
3.6371686458587646 -16.198522567749023 -71 0.5071015596389771 -0.319222491979599 -0.4
3.3770933151245117 -16.580259323120117 -71 0.46946316957473755 -0.372369933128357 -0.4
3.0771262645721436 -16.931516647338867 -71 0.42627938985824587 -0.4211186408996582 -0.4
2.740811347961426 -17.248146057128906 -71 0.3780599117279053 -0.46489320993423466 -0.4
2.3721206188201904 -17.52640724182129 -71 0.4067177176475525 -0.628970667719841 -0.25
1.9754092693328857 -17.763011932373047 -71 0.10340257332875179 -0.20596738503529477 -0.7692307692307693
1.555363655090332 -17.955167770385742 -71 0.20914116501808167 -0.5615290641784668 -0.4
1.1169453859329224 -18.100601196289062 -71 0.14696685671806337 -0.5809094667434692 -0.4
0.6653333902359009 -18.19759750366211 -71 0.08305689692497253 -0.5934278130531311 -0.4
0.20586219429969788 -18.245012283325195 -71 0.018164688907563686 -0.5989365935325622 -0.4
-0.2560407817363739 -18.242280960083008 -71 -0.046942849177867174 -0.5973703503608704 -0.4
-0.7149192690849304 -18.189437866210938 -71 -0.11149472147226334 -0.588747775554657 -0.4
-1.1653528213500977 -18.087108612060547 -71 -0.17472884356975557 -0.5731708765029907 -0.4
-1.6020208597183228 -17.936500549316406 -71 -0.2359005331993103 -0.550822925567627 -0.4
-2.0197651386260986 -17.739391326904297 -71 -0.29428513050079347 -0.5219686746597291 -0.4
-2.4136509895324707 -17.498111724853516 -71 -0.349193024635315 -0.4869489312171936 -0.4
-2.7790257930755615 -17.215511322021484 -71 -0.3999755620956421 -0.44617776870727544 -0.4
-3.1115736961364746 -16.894929885864258 -71 -0.44603483676910405 -0.400134813785553 -0.4
-3.4073660373687744 -16.540149688720703 -71 -0.17386613147599356 -0.12477340017046247 -0.7857142857142857
-3.662909507751465 -16.155363082885742 -71 -0.4348872105280558 -0.24539123972256977 -0.5
-3.875185012817383 -15.745118141174316 -71 -0.2571365407535008 -0.12431067654064723 -0.7142857142857142
-8.19044303894043 -6.162722587585449 -71 -0.5808187921841939 -0.3224713206291199 -0.3333333333333333
-8.812536239624023 -5.234663963317871 -71 -0.5206557869911194 -0.29659237861633303 -0.4
-9.329924583435059 -4.244410037994385 -71 -0.45820318659146625 -0.19846855103969574 -0.5
-9.736459732055664 -3.203725814819336 -71 -0.15065763184898778 -0.046553185111597964 -0.8421052631578947
-10.027310371398926 -2.1249773502349854 -71 -0.5883519411087036 -0.11354066729545594 -0.4
-10.199024200439453 -1.0209808349609375 -71 -0.5972144484519959 -0.0488301619887352 -0.4
-10.249558448791504 0.09514626860618591 -71 -0.5989812135696412 0.01646116152405739 -0.4
-10.178312301635742 1.210142970085144 -71 -0.5936312437057495 0.08155642747879029 -0.4
-9.98613452911377 2.3107614517211914 -71 -0.5812280654907227 0.1456826001405716 -0.4
-9.67530632019043 3.383924722671509 -71 -0.5619190216064454 0.20807809233665467 -0.4
-9.249521255493164 4.416882038116455 -71 -0.5359336972236634 0.2680010676383972 -0.4
-8.713839530944824 5.397360801696777 -71 -0.5035805583000184 0.3247400462627411 -0.4
-8.074624061584473 6.313710689544678 -71 -0.46524422168731694 0.3776205778121948 -0.4
-7.339470863342285 7.155045032501221 -71 -0.4213800191879273 0.426014518737793 -0.4
-6.517114162445068 7.9113664627075195 -71 -0.3725094795227051 0.469346559047699 -0.4
-5.6173248291015625 8.573690414428711 -71 -0.3192126274108887 0.5071023106575012 -0.4
-4.650793552398682 9.134145736694336 -71 -0.2621232628822327 0.5388328790664673 -0.4
-3.6290040016174316 9.586074829101562 -71 -0.16826639572779337 0.4701343774795532 -0.5
-2.564096689224243 9.924107551574707 -71 -0.17836453233446392 0.08985204781804765 -0.7142857142857142
3.5834567546844482 -11.700848579406738 -71 0.5048158049583436 0.32310904264450074 -0.4
3.7830429077148438 -12.03621768951416 -71 0.5339000582695007 0.27237691879272463 -0.4
3.948997735977173 -12.389439582824707 -71 0.5579022526741028 0.21905139684677125 -0.4
4.079740524291992 -12.757152557373047 -71 0.5765933632850647 0.16364164948463442 -0.4
4.174027919769287 -13.135855674743652 -71 0.5897958874702454 0.1066735476255417 -0.4
4.230961799621582 -13.52194595336914 -71 0.5973840832710267 0.048690348863601685 -0.4
4.25 -13.91174602508545 -71 0.5997618794441223 0.009756733477115632 -0.4
-2.67572283744812 10.249858856201172 -71 -0.5613223433494569 -0.2105334520339966 -0.4
-2.8149521350860596 10.564801216125488 -71 -0.5411349654197694 -0.25803114771842955 -0.4
-2.980752944946289 10.866602897644043 -71 -0.4307812949021657 -0.2530133823553721 -0.5
3 0 1 2
3 1 3 2
3 2 3 4
3 3 5 4
3 4 5 6
3 7 8 9
3 10 11 12
3 11 13 12
3 12 13 14
3 13 15 14
3 14 15 16
3 17 18 19
3 18 20 19
3 10 12 19
3 12 21 19
3 19 21 17
3 0 2 9
3 2 22 9
3 9 22 7
3 9 23 24
3 20 25 19
3 25 26 19
3 19 26 27
3 27 28 19
3 28 29 19
3 19 29 30
3 8 31 9
3 31 32 9
3 9 32 23
3 24 33 9
3 33 34 9
3 9 34 35
3 36 37 38
3 37 39 38
3 30 40 19
3 40 41 19
3 19 41 42
3 43 44 9
3 44 19 9
3 9 19 45
3 19 42 45
3 35 46 9
3 46 47 9
3 9 47 43
3 38 48 49
3 39 50 38
3 50 51 38
3 38 51 48
3 49 52 38
3 52 53 38
3 38 53 54
3 53 55 54
3 54 55 5
3 55 56 5
3 5 56 6
3 57 58 59
3 60 61 59
3 61 62 59
3 59 62 63
3 62 64 63
3 63 64 15
3 64 65 15
3 15 65 16
3 38 66 36
3 66 67 36
3 36 67 68
3 36 69 70
3 71 72 59
3 72 73 59
3 74 75 76
3 75 36 76
3 76 36 77
3 36 70 77
3 74 76 78
3 76 79 78
3 78 79 80
3 81 82 83
3 73 84 59
3 84 85 59
3 59 85 60
3 68 86 36
3 86 87 36
3 36 87 69
3 80 88 78
3 88 89 78
3 78 89 90
3 57 59 83
3 59 91 83
3 83 91 81
3 92 93 94
3 93 83 94
3 94 83 95
3 83 82 95
3 94 96 92
3 96 97 92
3 92 97 98
3 97 99 98
3 58 100 59
3 100 101 59
3 59 101 102
3 59 103 104
3 90 105 78
3 105 106 78
3 78 106 107
3 106 108 107
3 107 108 109
3 104 110 59
3 110 111 59
3 59 111 71
3 102 112 59
3 112 113 59
3 59 113 103
3 37 36 114
3 36 115 114
3 116 53 52
3 116 52 117
3 52 49 117
3 117 49 118
3 49 48 118
3 118 48 119
3 48 51 119
3 119 51 120
3 51 50 120
3 120 50 121
3 50 39 121
3 121 39 122
3 39 37 122
3 122 37 114
3 123 55 116
3 55 53 116
3 124 64 125
3 64 62 125
3 126 12 127
3 12 14 127
3 127 14 128
3 14 16 128
3 128 16 129
3 16 65 129
3 129 65 124
3 65 64 124
3 130 5 131
3 5 3 131
3 131 3 1
3 131 1 132
3 1 0 132
3 132 0 133
3 0 9 133
3 133 9 134
3 9 45 134
3 134 45 135
3 45 42 135
3 135 42 136
3 42 41 136
3 136 41 137
3 41 40 137
3 137 40 138
3 40 30 138
3 138 30 139
3 30 29 139
3 139 29 140
3 29 28 140
3 140 28 141
3 28 27 141
3 141 27 142
3 27 26 142
3 142 26 143
3 26 25 143
3 143 25 144
3 25 20 144
3 144 20 145
3 20 18 145
3 145 18 146
3 18 17 146
3 146 17 147
3 17 21 147
3 147 21 148
3 21 12 148
3 148 12 126
3 115 36 75
3 115 75 149
3 75 74 149
3 149 74 150
3 74 78 150
3 150 78 151
3 78 107 151
3 151 107 152
3 107 109 152
3 152 109 153
3 109 108 153
3 153 108 154
3 108 106 154
3 154 106 155
3 106 105 155
3 155 105 156
3 105 90 156
3 156 90 157
3 90 89 157
3 157 89 158
3 89 88 158
3 158 88 159
3 88 80 159
3 159 80 160
3 80 79 160
3 160 79 161
3 79 76 161
3 161 76 162
3 76 77 162
3 162 77 163
3 77 70 163
3 163 70 164
3 70 69 164
3 164 69 165
3 69 87 165
3 165 87 166
3 87 86 166
3 166 86 167
3 86 68 167
3 167 68 168
3 68 67 168
3 168 67 169
3 67 66 169
3 169 66 170
3 66 38 170
3 170 38 171
3 38 54 171
3 171 54 172
3 54 5 172
3 172 5 130
3 173 111 110
3 173 110 174
3 110 104 174
3 174 104 175
3 104 103 175
3 175 103 176
3 103 113 176
3 176 113 177
3 113 112 177
3 177 112 178
3 112 102 178
3 178 102 179
3 102 101 179
3 179 101 180
3 101 100 180
3 180 100 181
3 100 58 181
3 181 58 182
3 58 57 182
3 182 57 183
3 57 83 183
3 183 83 184
3 83 93 184
3 184 93 185
3 93 92 185
3 185 92 186
3 92 98 186
3 186 98 187
3 98 99 187
3 187 99 188
3 99 97 188
3 188 97 189
3 97 96 189
3 189 96 190
3 96 94 190
3 190 94 191
3 94 95 191
3 191 95 192
3 95 82 192
3 192 82 193
3 82 81 193
3 193 81 194
3 81 91 194
3 194 91 195
3 91 59 195
3 195 59 196
3 59 63 196
3 196 63 197
3 63 15 197
3 197 15 198
3 199 13 11
3 199 11 200
3 11 10 200
3 200 10 201
3 10 19 201
3 201 19 202
3 19 44 202
3 202 44 203
3 44 43 203
3 203 43 204
3 43 47 204
3 204 47 205
3 47 46 205
3 205 46 206
3 46 35 206
3 206 35 207
3 35 34 207
3 207 34 208
3 34 33 208
3 208 33 209
3 33 24 209
3 209 24 210
3 24 23 210
3 210 23 211
3 23 32 211
3 211 32 212
3 32 31 212
3 212 31 213
3 31 8 213
3 213 8 214
3 8 7 214
3 214 7 215
3 7 22 215
3 215 22 216
3 22 2 216
3 216 2 217
3 125 62 61
3 125 61 218
3 61 60 218
3 218 60 219
3 60 85 219
3 219 85 220
3 85 84 220
3 220 84 221
3 84 73 221
3 221 73 222
3 73 72 222
3 222 72 223
3 72 71 223
3 223 71 224
3 198 15 199
3 15 13 199
3 131 217 130
3 217 225 130
3 199 126 198
3 126 127 198
3 204 134 203
3 134 202 203
3 134 135 202
3 135 136 202
3 202 136 137
3 210 211 134
3 131 132 217
3 132 133 217
3 217 133 216
3 133 134 216
3 216 134 215
3 134 214 215
3 137 138 202
3 138 139 202
3 202 139 140
3 204 205 134
3 205 206 134
3 134 206 207
3 207 208 134
3 208 209 134
3 134 209 210
3 211 212 134
3 212 213 134
3 134 213 214
3 140 141 202
3 141 142 202
3 202 142 143
3 122 114 171
3 114 115 171
3 171 115 170
3 143 144 202
3 144 145 202
3 202 145 146
3 118 119 171
3 219 220 196
3 118 171 117
3 199 200 126
3 200 201 126
3 126 201 148
3 201 202 148
3 148 202 147
3 202 146 147
3 219 196 218
3 187 188 173
3 225 226 130
3 226 227 130
3 130 227 172
3 227 123 172
3 172 123 171
3 123 116 171
3 171 116 117
3 119 120 171
3 120 121 171
3 171 121 122
3 127 128 198
3 128 129 198
3 198 129 197
3 129 124 197
3 197 124 196
3 124 125 196
3 196 125 218
3 220 221 196
3 221 222 196
3 196 222 223
3 188 189 173
3 189 190 173
3 173 190 191
3 167 115 166
3 115 149 166
3 161 162 166
3 191 192 173
3 192 193 173
3 173 193 194
3 223 224 196
3 224 173 196
3 196 173 195
3 173 194 195
3 167 168 115
3 168 169 115
3 115 169 170
3 175 176 183
3 184 185 173
3 185 186 173
3 173 186 187
3 149 150 166
3 150 151 166
3 166 151 152
3 152 153 166
3 153 154 166
3 166 154 155
3 155 156 166
3 156 157 166
3 166 157 158
3 162 163 166
3 163 164 166
3 166 164 165
3 158 159 166
3 159 160 166
3 166 160 161
3 184 173 183
3 173 174 183
3 183 174 175
3 176 177 183
3 177 178 183
3 183 178 179
3 179 180 183
3 180 181 183
3 183 181 182
3 71 111 224
3 111 173 224
3 217 2 225
3 2 4 225
3 225 4 226
3 4 6 226
3 226 6 227
3 6 56 227
3 227 56 123
3 56 55 123
