ply
format ascii 1.0
comment Exported by Aspose.3D 23.9.0
element vertex 430
property float x
property float y
property float z
property float nx
property float ny
property float nz
element face 732
property list uchar int vertex_index
end_header
-49.998252868652344 -4.998369216918945 -91.00000762939453 -0.5 3.725286603639688E-07 -0.5
-49.998252868652344 -4.998369216918945 -81.00000762939453 -0.06666646867976539 -4.723410007108129E-06 0.9333333333333333
-49.99824523925781 5.001640319824219 -91.00000762939453 -0.3999998090788722 0.2000002980229283 -0.4
-49.99824523925781 5.001640319824219 -81.00000762939453 -0.03125081763951446 0.06250124128851813 0.90625
50.00174331665039 -4.998464584350586 -81.00000762939453 0.05263302122056104 -1.865968421039238E-06 0.9473684210526315
50.00174331665039 -4.998464584350586 -91.00000762939453 0.5 -5.587930331785174E-07 -0.5
50.00175476074219 5.001544952392578 -81.00000762939453 0.08695631593089855 0.04348406145643452 0.8695652173913043
50.00175476074219 5.001544952392578 -91.00000762939453 0.2500004773028195 0.4999997206034834 -0.25
-48.381534576416016 0.3405749201774597 -81 -0.5944388433378208 0.07554028088065366 0.4
-48.32635498046875 0.677156925201416 -81 -0.5827865125810604 0.13936751114197252 0.4
42.264892578125 1.0057998895645142 -81 -0.5643016418285569 0.201558630494333 0.4
42.17364501953125 0.677156925201416 -81 -0.5827850542608787 0.13936939647603577 0.4
42.118465423583984 0.3405749201774597 -81 -0.17483436022573115 0.02221855095153312 0.8235294117647058
44.740386962890625 3.108503580093384 -81 -0.08624227620579178 0.5929824438436299 0.4
45.079463958740234 3.1453802585601807 -81 -0.02162388017640069 0.5988295314349671 0.4
42.391136169433594 1.322650671005249 -81 -0.5392005045036726 0.26139017621414384 0.4
42.550899505615234 1.6239947080612183 -81 -0.5077767687203405 0.3181584369673708 0.4
42.7423095703125 1.9062987565994263 -81 -0.4704031661594826 0.3711915255421232 0.4
42.963111877441406 2.1662533283233643 -81 -0.42751210467084494 0.4198754726475187 0.4
43.21073532104492 2.400810480117798 -81 -0.3796106409584155 0.4636356482138922 0.4
43.48225784301758 2.607220411300659 -81 -0.3272570201893686 0.5019610623518688 0.4
47.757694244384766 1.9062987565994263 -81 0.48350801985870934 0.35395367507742326 0.4
47.949100494384766 1.6239947080612183 -81 0.5189443863408542 0.299599000919784 0.4
-48.235107421875 1.0057998895645142 -81 -0.5643010708094608 0.2015627196528044 0.4
-48.10886001586914 1.322650671005249 -81 -0.539202342137105 0.26138902428649546 0.4
-47.949100494384766 1.6239947080612183 -81 -0.5077783627544022 0.318157151819446 0.4
-47.757694244384766 1.9062987565994263 -81 -0.4704037842204116 0.3711919943650628 0.4
-47.536888122558594 2.1662533283233643 -81 -0.4275126526945087 0.41987599129067804 0.4
-47.289268493652344 2.400810480117798 -81 -0.3796090281800162 0.46363781709351315 0.4
43.774513244628906 2.7830629348754883 -81 -0.2710658496705861 0.5344019517034241 0.4
44.08406448364258 2.926276683807373 -81 -0.17642005150601706 0.46716303776562756 0.5
44.40728759765625 3.035182476043701 -81 -0.14985516710016783 0.5801991970833115 0.4
45.42053985595703 3.1453802585601807 -81 0.043247583795749736 0.5976566366579846 0.4
45.759613037109375 3.108503580093384 -81 0.10761232683135519 0.5894769348087721 0.4
46.092716217041016 3.035182476043701 -81 0.17071479333092157 0.5743864332313934 0.4
46.41593551635742 2.926276683807373 -81 0.23181726114576123 0.552561182300451 0.4
46.725486755371094 2.7830629348754883 -81 0.29020023867764166 0.5242584980557695 0.4
47.017738342285156 2.607220411300659 -81 0.34518014586126355 0.48980992607130247 0.4
48.32635498046875 -0.677156925201416 -81 0.582786511327322 -0.13936751088275515 0.4
48.235107421875 -1.0057998895645142 -81 0.56430107004212 -0.20156271940406897 0.4
48.10886001586914 -1.322650671005249 -81 0.5392023416584835 -0.2613890240716614 0.4
47.536888122558594 -2.1662533283233643 -81 0.4275126526369377 -0.4198759912402693 0.4
47.289268493652344 -2.400810480117798 -81 0.3796090281997067 -0.4636378171212755 0.4
42.550899505615234 -1.6239947080612183 -81 -0.518941867351532 -0.2996019721031189 0.4
42.391136169433594 -1.322650671005249 -81 -0.548293948173523 -0.24173479676246645 0.4
-42.7423095703125 -1.9062987565994263 -81 0.2940019592642784 -0.23199468851089478 0.625
42.264892578125 -1.0057998895645142 -81 -0.25964354385029187 -0.08228991248390892 0.7272727272727273
-42.550899505615234 -1.6239947080612183 -81 0.5077767372131348 -0.31815841794013977 0.4
-47.017738342285156 2.607220411300659 -81 -0.3272563976051743 0.5019624909445156 0.4
-46.725486755371094 2.7830629348754883 -81 -0.27106788698093853 0.5344018618661267 0.4
-46.41593551635742 2.926276683807373 -81 -0.2116990485720862 0.560577041741135 0.4
-46.092716217041016 3.035182476043701 -81 -0.14984881957913104 0.5801798380870878 0.4
-45.759613037109375 3.108503580093384 -81 -0.0862418921064716 0.5929804483481348 0.4
-45.42053985595703 3.1453802585601807 -81 -0.021623826322542075 0.5988290362145108 0.4
47.289268493652344 2.400810480117798 -81 0.396114102376373 0.4496183393696129 0.4
47.536888122558594 2.1662533283233643 -81 0.4424060648986597 0.4041531797056678 0.4
48.10886001586914 1.322650671005249 -81 0.5482941715824836 0.24173725332675533 0.4
48.235107421875 1.0057998895645142 -81 0.571216007218527 0.1810400175552559 0.4
48.32635498046875 0.677156925201416 -81 0.5874418960532694 0.11821778013485301 0.4
47.949100494384766 -1.6239947080612183 -81 0.5077783624647054 -0.3181571516501663 0.4
47.757694244384766 -1.9062987565994263 -81 0.4704037840637284 -0.3711919942502164 0.4
47.017738342285156 -2.607220411300659 -81 0.3272563976869151 -0.5019624910710035 0.4
46.725486755371094 -2.7830629348754883 -81 0.2710678871128039 -0.534401862123832 0.4
46.41593551635742 -2.926276683807373 -81 0.21169904874230952 -0.5605770421841954 0.4
-48.400001525878906 -1.0062145561207103E-11 -81 -0.49926875975256735 0.009023555241314339 0.5
-48.381534576416016 -0.3405749201774597 -81 -0.5967801259169846 -0.054012612818701206 0.4
42.7423095703125 -1.9062987565994263 -81 -0.21977608083311848 -0.16088815456993963 0.7272727272727273
42.963111877441406 -2.1662533283233643 -81 -0.44240551726188504 -0.40415266142641715 0.4
43.21073532104492 -2.400810480117798 -81 -0.39611466641894993 -0.4496169695502218 0.4
-43.21073532104492 -2.400810480117798 -81 0.37961061000823976 -0.4636356115341187 0.4
-43.48225784301758 -2.607220411300659 -81 0.32725698947906495 -0.5019610166549683 0.4
-44.740386962890625 -3.108503580093384 -81 0.08624227793126238 -0.5929824528929203 0.4
-45.079463958740234 -3.1453802585601807 -81 0.02162388043658439 -0.5988295352031855 0.4
-47.757694244384766 -1.9062987565994263 -81 -0.4835080206956036 -0.3539536757116139 0.4
-47.949100494384766 -1.6239947080612183 -81 -0.5189443873120808 -0.2995990015008374 0.4
-48.10886001586914 -1.322650671005249 -81 -0.5482941727369053 -0.2417372538556947 0.4
48.381534576416016 0.3405749201774597 -81 0.5967801232971851 0.054012612560779875 0.4
48.400001525878906 -6.844806161752578E-14 -81 0.4992687555721507 -0.00902355524829756 0.5
48.381534576416016 -0.3405749201774597 -81 0.5944388411404816 -0.07554028067574166 0.4
46.092716217041016 -3.035182476043701 -81 0.1498488197711481 -0.5801798388127282 0.4
45.759613037109375 -3.108503580093384 -81 0.08624189228719957 -0.5929804495498957 0.4
45.42053985595703 -3.1453802585601807 -81 0.02162382640438523 -0.5988290383427284 0.4
45.079463958740234 -3.1453802585601807 -81 -0.04324763794467117 -0.5976571358846741 0.4
44.740386962890625 -3.108503580093384 -81 -0.08967689947568713 -0.4912314662683125 0.5
44.40728759765625 -3.035182476043701 -81 -0.17071455367670296 -0.5743855619116943 0.4
44.08406448364258 -2.926276683807373 -81 -0.23181528467362683 -0.552561193020017 0.4
43.774513244628906 -2.7830629348754883 -81 -0.29019903601285224 -0.5242581948407292 0.4
43.48225784301758 -2.607220411300659 -81 -0.3451818177258488 -0.48980769912634375 0.4
-48.235107421875 -1.0057998895645142 -81 -0.5712160086399763 -0.18104001802608993 0.4
-48.32635498046875 -0.677156925201416 -81 -0.5874418979002257 -0.11821778052757281 0.4
-44.08406448364258 2.926276683807373 -81 0.23181525468826295 0.552561116218567 0.4
-43.774513244628906 2.7830629348754883 -81 0.2901990056037903 0.5242581367492676 0.4
42.10000228881836 -1.0068806899354854E-11 -81 -0.4279430764062064 0.007732920348644257 0.5714285714285714
-42.10000228881836 -6.178672346977485E-14 -81 0.3744501918554306 -0.0067663053050637245 0.625
42.118465423583984 -0.3405749201774597 -81 -0.5967785716056824 -0.05401023626327515 0.4
42.17364501953125 -0.677156925201416 -81 -0.5874400615692139 -0.1182217836380005 0.4
-42.963111877441406 -2.1662533283233643 -81 0.4275120735168457 -0.41987544298171997 0.4
-46.092716217041016 -3.035182476043701 -81 -0.17071479369625422 -0.57438643457117 0.4
-46.41593551635742 -2.926276683807373 -81 -0.23181726158628635 -0.552561183416401 0.4
-46.725486755371094 -2.7830629348754883 -81 -0.2902002391852193 -0.5242584990179012 0.4
-47.017738342285156 -2.607220411300659 -81 -0.3451801464359733 -0.48980992692092973 0.4
-45.079463958740234 3.1453802585601807 -81 0.043247637613671945 0.5976571314654393 0.4
-44.740386962890625 3.108503580093384 -81 0.08967691011319326 0.4912314717192506 0.5
-44.40728759765625 3.035182476043701 -81 0.1707145243883133 0.5743854522705079 0.4
-43.48225784301758 2.607220411300659 -81 0.3451817870140076 0.48980765342712407 0.4
-43.21073532104492 2.400810480117798 -81 0.39611463546752934 0.44961693286895754 0.4
-42.963111877441406 2.1662533283233643 -81 0.4424054861068726 0.40415263175964355 0.4
-42.7423095703125 1.9062987565994263 -81 0.48350737094879154 0.35395318269729614 0.4
-42.550899505615234 1.6239947080612183 -81 0.518941867351532 0.2996019721031189 0.4
-42.391136169433594 1.322650671005249 -81 0.548293948173523 0.24173479676246645 0.4
-42.264892578125 1.0057998895645142 -81 0.5712157964706421 0.18103780746459963 0.4
-42.17364501953125 0.677156925201416 -81 0.48953338464101154 0.09851815303166707 0.5
-42.118465423583984 0.3405749201774597 -81 0.5967785716056824 0.05401023626327515 0.4
-42.17364501953125 -0.677156925201416 -81 0.5827850222587586 -0.1393693894147873 0.4
-42.264892578125 -1.0057998895645142 -81 0.564301609992981 -0.20155861973762512 0.4
-42.391136169433594 -1.322650671005249 -81 0.5392004728317261 -0.26139016151428224 0.4
-43.774513244628906 -2.7830629348754883 -81 0.27106581926345824 -0.5344018936157227 0.4
-44.08406448364258 -2.926276683807373 -81 0.17642017548772176 -0.46716341598107647 0.5
-44.40728759765625 -3.035182476043701 -81 0.14985532371943008 -0.5801996642239828 0.4
-47.289268493652344 -2.400810480117798 -81 -0.39611410302420613 -0.44961834013265617 0.4
-47.536888122558594 -2.1662533283233643 -81 -0.4424060656314396 -0.40415318039890735 0.4
-42.118465423583984 -0.3405749201774597 -81 0.5944368362426758 -0.07554220706224442 0.4
-45.42053985595703 -3.1453802585601807 -81 -0.04324758389988688 -0.5976566389913842 0.4
-45.759613037109375 -3.108503580093384 -81 -0.10761232709771207 -0.5894769365032516 0.4
-48.381534576416016 0.3405749201774597 -66 -0.9946311712265015 0.09002077827850977 9.283998779107154E-19
-48.32635498046875 0.677156925201416 -66 -0.9790679216384888 0.19702922304471332 0
-48.235107421875 1.0057998895645142 -66 -0.9520250757535298 0.30173282821973163 0
-48.10886001586914 1.322650671005249 -66 -0.9138222336769104 0.402894785006841 0
-47.949100494384766 1.6239947080612183 -66 -0.864906092484792 0.49933093786239624 0
-47.757694244384766 1.9062987565994263 -66 -0.8058456182479858 0.5899219711621602 0
-47.536888122558594 2.1662533283233643 -66 -0.7373424768447876 0.6735877195994059 0
-47.289268493652344 2.400810480117798 -66 -0.6601893107096354 0.7493628859519958 0
-47.017738342285156 2.607220411300659 -66 -0.5752994815508524 0.8163487513860066 0
-46.725486755371094 2.7830629348754883 -66 -0.4836664001146952 0.8737629055976868 0
-46.41593551635742 2.926276683807373 -66 -0.3863615393638611 0.9209338823954264 0
-46.092716217041016 3.035182476043701 -66 -0.28452420731385547 0.957309087117513 0
-45.759613037109375 3.108503580093384 -66 -0.1793535699446996 0.9824596246083577 0
-45.42053985595703 3.1453802585601807 -66 -0.07207919160525003 0.9960920015970866 0
-45.079463958740234 3.1453802585601807 -66 0.036039595802625016 0.9980460007985432 0
-44.740386962890625 3.108503580093384 -66 0.14373617867628732 0.9882988135019938 0
-44.40728759765625 3.035182476043701 -66 0.24974758426348367 0.9669647614161173 0
-44.08406448364258 2.926276683807373 -66 0.3528297940889994 0.93429430325826 0
-43.774513244628906 2.7830629348754883 -66 0.45177636543909705 0.8906698226928711 0
-43.48225784301758 2.607220411300659 -66 0.5454283157984415 0.836601694424947 0
-43.21073532104492 2.400810480117798 -66 0.6326843500137329 0.772726019223531 0
-42.963111877441406 2.1662533283233643 -66 0.7125201225280762 0.6997924049695332 0
-42.7423095703125 1.9062987565994263 -66 0.7840052247047424 0.6186525026957194 0
-42.550899505615234 1.6239947080612183 -66 0.8462945620218912 0.5302640299002329 0
-42.391136169433594 1.322650671005249 -66 0.8986674547195435 0.43565026919047034 0
-42.264892578125 1.0057998895645142 -66 0.9405026833216349 0.33593103289604187 0
-42.17364501953125 0.677156925201416 -66 0.9713083704312642 0.23228231569131214 0
-42.118465423583984 0.3405749201774597 -66 0.9907280604044596 0.125903678437074 0
-42.10000228881836 -6.178672346977485E-14 -66 0.9985338449478149 0.018043480813503265 0
-42.118465423583984 -0.3405749201774597 -66 0.9946309526761372 -0.0900170604387919 0
-42.17364501953125 -0.677156925201416 -66 0.9790667692820231 -0.19703630606333414 0
-42.264892578125 -1.0057998895645142 -66 0.9520263274510701 -0.301729679107666 0
-42.391136169433594 -1.322650671005249 -66 0.9138232469558716 -0.40289132793744403 0
-42.550899505615234 -1.6239947080612183 -66 0.8649031122525532 -0.4993366201718648 0
-42.7423095703125 -1.9062987565994263 -66 0.8058456182479858 -0.5899219711621602 0
-42.963111877441406 -2.1662533283233643 -66 0.7373424768447876 -0.6735877195994059 0
-43.21073532104492 -2.400810480117798 -66 0.6601910591125488 -0.7493615547815958 0
-43.48225784301758 -2.607220411300659 -66 0.5753029783566792 -0.8163460890452067 0
-43.774513244628906 -2.7830629348754883 -66 0.48366500933965045 -0.8737635612487793 0
-44.08406448364258 -2.926276683807373 -66 0.38635875781377155 -0.9209351936976115 0
-44.40728759765625 -3.035182476043701 -66 0.28452420731385547 -0.957309087117513 0
-44.740386962890625 -3.108503580093384 -66 0.1793535699446996 -0.9824596246083577 0
-45.079463958740234 -3.1453802585601807 -66 0.07207919160525003 -0.9960920015970866 0
-45.42053985595703 -3.1453802585601807 -66 -0.036039595802625016 -0.9980460007985432 0
-45.759613037109375 -3.108503580093384 -66 -0.14373617867628732 -0.9882988135019938 0
-46.092716217041016 -3.035182476043701 -66 -0.24974758426348367 -0.9669647614161173 0
-46.41593551635742 -2.926276683807373 -66 -0.3528311848640442 -0.9342936476071675 0
-46.725486755371094 -2.7830629348754883 -66 -0.4517791469891866 -0.890668511390686 0
-47.017738342285156 -2.607220411300659 -66 -0.5454265673955281 -0.836603025595347 0
-47.289268493652344 -2.400810480117798 -66 -0.632680853207906 -0.772728681564331 0
-47.536888122558594 -2.1662533283233643 -66 -0.7125201225280762 -0.6997924049695332 0
-47.757694244384766 -1.9062987565994263 -66 -0.7840052247047424 -0.6186525026957194 0
-47.949100494384766 -1.6239947080612183 -66 -0.8462960521380106 -0.5302611887454987 0
-48.10886001586914 -1.322650671005249 -66 -0.8986691832542419 -0.4356477359930674 0
-48.235107421875 -1.0057998895645142 -66 -0.9405001799265543 -0.3359373311201731 0
-48.32635498046875 -0.677156925201416 -66 -0.9713089466094971 -0.23227877418200174 0
-48.381534576416016 -0.3405749201774597 -66 -0.990729033946991 -0.12590022509296733 0
-48.400001525878906 -1.0062917513153913E-11 -66 -0.998533308506012 -0.0180471104880174 1.2207600411775294E-20
42.118465423583984 0.3405749201774597 -66 -0.9946309526761372 0.0900170604387919 9.282131418874315E-19
42.17364501953125 0.677156925201416 -66 -0.9790667692820231 0.19703630606333414 0
42.264892578125 1.0057998895645142 -66 -0.9520263274510701 0.301729679107666 0
42.391136169433594 1.322650671005249 -66 -0.9138232469558716 0.40289132793744403 0
42.550899505615234 1.6239947080612183 -66 -0.8649031122525532 0.4993366201718648 0
42.7423095703125 1.9062987565994263 -66 -0.8058456182479858 0.5899219711621602 0
42.963111877441406 2.1662533283233643 -66 -0.7373424768447876 0.6735877195994059 0
43.21073532104492 2.400810480117798 -66 -0.6601910591125488 0.7493615547815958 0
43.48225784301758 2.607220411300659 -66 -0.5753029783566792 0.8163460890452067 0
43.774513244628906 2.7830629348754883 -66 -0.48366500933965045 0.8737635612487793 0
44.08406448364258 2.926276683807373 -66 -0.38635875781377155 0.9209351936976115 0
44.40728759765625 3.035182476043701 -66 -0.28452420731385547 0.957309087117513 0
44.740386962890625 3.108503580093384 -66 -0.1793535699446996 0.9824596246083577 0
45.079463958740234 3.1453802585601807 -66 -0.07207919160525003 0.9960920015970866 0
45.42053985595703 3.1453802585601807 -66 0.036039595802625016 0.9980460007985432 0
45.759613037109375 3.108503580093384 -66 0.14373617867628732 0.9882988135019938 0
46.092716217041016 3.035182476043701 -66 0.24974758426348367 0.9669647614161173 0
46.41593551635742 2.926276683807373 -66 0.3528311848640442 0.9342936476071675 0
46.725486755371094 2.7830629348754883 -66 0.4517791469891866 0.890668511390686 0
47.017738342285156 2.607220411300659 -66 0.5454265673955281 0.836603025595347 0
47.289268493652344 2.400810480117798 -66 0.632680853207906 0.772728681564331 0
47.536888122558594 2.1662533283233643 -66 0.7125201225280762 0.6997924049695332 0
47.757694244384766 1.9062987565994263 -66 0.7840052247047424 0.6186525026957194 0
47.949100494384766 1.6239947080612183 -66 0.8462960521380106 0.5302611887454987 0
48.10886001586914 1.322650671005249 -66 0.8986691832542419 0.4356477359930674 0
48.235107421875 1.0057998895645142 -66 0.9405001799265543 0.3359373311201731 0
48.32635498046875 0.677156925201416 -66 0.9713089466094971 0.23227877418200174 0
48.381534576416016 0.3405749201774597 -66 0.990729033946991 0.12590022509296733 0
48.400001525878906 -6.844806161752578E-14 -66 0.998533308506012 0.0180471104880174 0
48.381534576416016 -0.3405749201774597 -66 0.9946311712265015 -0.09002077827850977 0
48.32635498046875 -0.677156925201416 -66 0.9790679216384888 -0.19702922304471332 0
48.235107421875 -1.0057998895645142 -66 0.9520250757535298 -0.30173282821973163 0
48.10886001586914 -1.322650671005249 -66 0.9138222336769104 -0.402894785006841 0
47.949100494384766 -1.6239947080612183 -66 0.864906092484792 -0.49933093786239624 0
47.757694244384766 -1.9062987565994263 -66 0.8058456182479858 -0.5899219711621602 0
47.536888122558594 -2.1662533283233643 -66 0.7373424768447876 -0.6735877195994059 0
47.289268493652344 -2.400810480117798 -66 0.6601893107096354 -0.7493628859519958 0
47.017738342285156 -2.607220411300659 -66 0.5752994815508524 -0.8163487513860066 0
46.725486755371094 -2.7830629348754883 -66 0.4836664001146952 -0.8737629055976868 0
46.41593551635742 -2.926276683807373 -66 0.3863615393638611 -0.9209338823954264 0
46.092716217041016 -3.035182476043701 -66 0.28452420731385547 -0.957309087117513 0
45.759613037109375 -3.108503580093384 -66 0.1793535699446996 -0.9824596246083577 0
45.42053985595703 -3.1453802585601807 -66 0.07207919160525003 -0.9960920015970866 0
45.079463958740234 -3.1453802585601807 -66 -0.036039595802625016 -0.9980460007985432 0
44.740386962890625 -3.108503580093384 -66 -0.14373617867628732 -0.9882988135019938 0
44.40728759765625 -3.035182476043701 -66 -0.24974758426348367 -0.9669647614161173 0
44.08406448364258 -2.926276683807373 -66 -0.3528297940889994 -0.93429430325826 0
43.774513244628906 -2.7830629348754883 -66 -0.45177636543909705 -0.8906698226928711 0
43.48225784301758 -2.607220411300659 -66 -0.5454283157984415 -0.836601694424947 0
43.21073532104492 -2.400810480117798 -66 -0.6326843500137329 -0.772726019223531 0
42.963111877441406 -2.1662533283233643 -66 -0.7125201225280762 -0.6997924049695332 0
42.7423095703125 -1.9062987565994263 -66 -0.7840052247047424 -0.6186525026957194 0
42.550899505615234 -1.6239947080612183 -66 -0.8462945620218912 -0.5302640299002329 0
42.391136169433594 -1.322650671005249 -66 -0.8986674547195435 -0.43565026919047034 0
42.264892578125 -1.0057998895645142 -66 -0.9405026833216349 -0.33593103289604187 0
42.17364501953125 -0.677156925201416 -66 -0.9713083704312642 -0.23228231569131214 0
42.118465423583984 -0.3405749201774597 -66 -0.9907280604044596 -0.125903678437074 0
42.10000228881836 -1.0069578851301664E-11 -66 -0.9985338449478149 -0.018043480813503265 6.591402497472343E-20
50.00174331665039 -4.998455047607422 -91.00000762939453 -9.546056389808655E-07 -1 0
50.00174331665039 -4.998455047607422 -81.00000762939453 -9.546056389808655E-07 -1 0
-49.998252868652344 -4.998359203338623 -91.00000762939453 -9.546056389808655E-07 -1 0
-49.998252868652344 -4.998359203338623 -81.00000762939453 -9.546056389808655E-07 -1 0
7.35920524597168 -12.122111320495605 -66 0.18327230215072632 -0.5706136941909791 -0.4
5.81488037109375 -12.735272407531738 -66 0.21002622161592754 -0.5314308745520455 -0.42857142857142855
25.524581909179688 15.787599563598633 -66 0.19109063678317598 0.27266289790471393 -0.6666666666666666
-5.81488037109375 -12.735272407531738 -66 -0.18377294391393661 -0.46500201523303986 -0.5
-7.35920524597168 -12.122111320495605 -66 -0.2023418962955475 -0.5641333818435669 -0.4
21.43102264404297 19.202316284179688 -66 0.2417957650290595 0.22890061802334255 -0.6666666666666666
2.975414514541626 -13.680164337158203 -66 0.11687656044960022 -0.5877273559570313 -0.4
1.4962775707244873 -13.919811248779297 -66 0.05339266657829285 -0.5968524098396302 -0.4
23.391719818115234 17.391761779785156 -66 0.1631598174571991 0.18904499212900797 -0.75
-8.957367897033691 -11.667380332946777 -66 -0.14457797408103942 -0.5816235303878784 -0.4
-10.593162536621094 -11.375690460205078 -66 -0.07112321878472963 -0.49434613188107807 -0.5
19.662376403808594 21.200899124145508 -66 0.39538911978403724 0.30512942870457965 -0.5
-12.25 -11.25 -66 -0.06342853179999759 -0.5675334078924996 -0.42857142857142855
18.10371971130371 23.367238998413086 -66 0.4240742723147074 0.26381347576777137 -0.5
-47.3111457824707 -6.062750339508057 -66 -0.07454860636166163 -0.4219526733670916 -0.5714285714285714
16.77086067199707 25.679365158081055 -66 0.5381500601768494 0.2637861371040344 -0.4
4.420466899871826 -13.283804893493652 -66 0.179021555185318 -0.5718695998191834 -0.4
-15.677703857421875 28.118892669677734 -66 -0.5545868515968323 0.22720804810523987 -0.4
14.834178924560547 30.645931243896484 -66 0.26366200772198767 0.06851911815730008 -0.7272727272727273
-16.770723342895508 25.686826705932617 -66 -0.5289470314979553 0.28178910017013553 -0.4
-18.10261344909668 23.376909255981445 -66 -0.4979522466659546 0.333517062664032 -0.4
-25.515920639038086 15.803044319152832 -66 -0.32744063138961793 0.5019688248634339 -0.4
-23.385400772094727 17.406330108642578 -66 -0.3762264847755432 0.466523015499115 -0.4
15.677315711975098 28.11382484436035 -66 0.10406536746908117 0.03857788222807425 -0.8888888888888888
-21.42677879333496 19.215595245361328 -66 -0.3510027527809143 0.3552951018015543 -0.5
-19.659887313842773 21.212528228759766 -66 -0.46191617250442507 0.3818684577941895 -0.4
-47.5584831237793 -6.01547384262085 -66 -0.14533060491085054 -0.5816488146781922 -0.4
-47.80097961425781 -5.947621822357178 -66 -0.1935969889163971 -0.5674121975898743 -0.4
-4.420466899871826 -13.283804893493652 -66 -0.16611047089099884 -0.47092556953430176 -0.5
-2.975414514541626 -13.680164337158203 -66 -0.1377935528755188 -0.583177936077118 -0.4
-1.2434497875801753E-13 -14 -66 -0.01070307195186615 -0.5991402268409729 -0.4
-1.4962775707244873 -13.919811248779297 -66 -0.07467611730098725 -0.5945645928382873 -0.4
12.25 -11.25 -66 0.03699997688333193 -0.33106115460395813 -0.6666666666666666
10.593162536621094 -11.375690460205078 -66 0.06536721885204315 -0.5957481384277344 -0.4
8.957367897033691 -11.667380332946777 -66 0.1249532401561737 -0.5861530542373657 -0.4
47.73528289794922 6 -66 0.13853819171587625 0.30306294891569346 -0.6666666666666666
48.03693771362305 -5.8596720695495605 -66 0.22502992153167725 -0.5556958198547364 -0.4
47.80097961425781 -5.947621822357178 -66 0.17763509750366213 -0.5726099610328674 -0.4
-14.25 33.25 -66 -0.3797774910926819 0.16365924903324672 -0.5714285714285714
-12.25 35.25 -66 -0.3535533845424652 0.6035533845424652 -0.25
12.25 35.25 -66 0.1414213538169861 0.5414213538169861 -0.4
-51.38827896118164 -2.1208913326263428 -66 -0.5697998642921448 -0.18546522855758668 -0.4
-51.580997467041016 -1.4474425315856934 -66 -0.5864606618881226 -0.12301703691482545 -0.4
-51.70006561279297 -0.7571545243263245 -66 -0.5962986946105957 -0.059136077761650085 -0.4
-51.74409103393555 -0.05805795267224312 -66 -0.5991994500160217 0.005428802967071534 -0.4
27.8079776763916 14.406097412109375 -66 0.29285444021224977 0.5229004740715028 -0.4
30.218746185302734 13.261266708374023 -66 0.2319739120347159 0.5220264366694859 -0.42857142857142855
47.3111457824707 -6.062750339508057 -66 0.08007557938496271 -0.493447075287501 -0.5
47.5584831237793 -6.01547384262085 -66 0.12898800373077393 -0.5854899048805237 -0.4
-14.834617614746094 30.648487091064453 -66 -0.5746119022369385 0.1703268587589264 -0.4
14.25 33.25 -66 0.47799249887466433 0.3266212403774262 -0.4
-48.03693771362305 -5.8596720695495605 -66 -0.24050096273422242 -0.5491772055625915 -0.4
-48.26468276977539 -5.752244472503662 -66 -0.2898409128189087 -0.5246489524841309 -0.4
-48.86668014526367 -5.394093036651611 -66 -0.34261025190353395 -0.49161723852157596 -0.4
-51.71257400512695 0.6417140960693359 -66 -0.5951290488243103 0.06993305236101151 -0.4
-51.605865478515625 1.3340204954147339 -66 -0.5841350317001343 0.13362466394901276 -0.4
-51.42521667480469 2.0108072757720947 -66 -0.31463621722327334 0.10875617133246528 -0.6666666666666666
-48.367042541503906 5.697425842285156 -66 -0.2780961513519287 0.5307841777801514 -0.4
-47.73528289794922 6 -66 -0.23974739313125612 0.5498135328292847 -0.4
-30.20486831665039 13.277101516723633 -66 -0.16255279183387758 0.3653427004814148 -0.6000000000000001
-27.796775817871094 14.421974182128906 -66 -0.2753395795822144 0.5323327779769897 -0.4
-49.426605224609375 -4.973188400268555 -66 -0.39356590509414674 -0.4518574953079224 -0.4
-49.93793869018555 -4.494426727294922 -66 -0.43994295597076416 -0.4068408727645874 -0.4
-50.39473342895508 -3.9633772373199463 -66 -0.4812022089958191 -0.3570906162261963 -0.4
-50.79167175292969 -3.386219024658203 -66 -0.5168628573417664 -0.303186571598053 -0.4
-51.1241455078125 -2.7696659564971924 -66 -0.5465099930763245 -0.2457563281059265 -0.4
48.96253967285156 5.328568935394287 -66 0.35134391784667973 0.48541405200958254 -0.4
49.51485061645508 4.897721290588379 -66 0.4015815615653992 0.44474874734878544 -0.4
48.26468276977539 -5.752244472503662 -66 0.07181748904679951 -0.14043520312560231 -0.8421052631578947
50.01754379272461 4.40989351272583 -66 0.44714739322662356 0.39890910387039186 -0.4
50.46476745605469 3.8707621097564697 -66 0.48750904798507694 0.3484312176704407 -0.4
50.8513298034668 3.2865991592407227 -66 0.5222009897232056 0.29389678239822387 -0.4
-48.96253967285156 5.328568935394287 -66 -0.23831771952765327 0.35553243330546785 -0.5714285714285714
-51.17272186279297 2.664200782775879 -66 -0.5419677019119263 0.2556177258491516 -0.4
-50.8513298034668 3.2865991592407227 -66 -0.3652024013655526 0.22321686574390956 -0.5714285714285714
48.367042541503906 5.697425842285156 -66 0.2970209240913391 0.5204304695129395 -0.4
51.17272186279297 2.664200782775879 -66 0.5508167862892152 0.23594549894332886 -0.4
51.42521667480469 2.0108072757720947 -66 0.5730245113372803 0.17524894475936892 -0.4
51.605865478515625 1.3340204954147339 -66 0.5885662317276001 0.11251254677772522 -0.4
51.71257400512695 0.6417140960693359 -66 0.5972606658935548 0.04846567511558533 -0.4
51.74409103393555 -0.05805795267224312 -66 0.5990066170692444 -0.016140691936016083 -0.4
51.70006561279297 -0.7571545243263245 -66 0.5937836050987244 -0.08056196868419647 -0.4
51.1241455078125 -2.7696659564971924 -66 0.5373103022575378 -0.26526775360107424 -0.4
50.79167175292969 -3.386219024658203 -66 0.6320188790559769 -0.40199245512485504 -0.25
50.39473342895508 -3.9633772373199463 -66 0.3900308907032013 -0.3118165632088979 -0.5
51.580997467041016 -1.4474425315856934 -66 0.5816528081893921 -0.14404621422290803 -0.4
51.38827896118164 -2.1208913326263428 -66 0.3126415411631266 -0.11436392532454596 -0.6666666666666666
48.86668014526367 -5.394093036651611 -66 0.3246928095817566 -0.5036306858062745 -0.4
49.426605224609375 -4.973188400268555 -66 0.37704679965972904 -0.46573064327239994 -0.4
49.93793869018555 -4.494426727294922 -66 0.42501398324966433 -0.42241261005401615 -0.4
-50.46476745605469 3.8707621097564697 -66 -0.593315452337265 0.45718999207019806 -0.25
-50.01754379272461 4.40989351272583 -66 -0.43249911069869995 0.4147454380989075 -0.4
-49.51485061645508 4.897721290588379 -66 -0.385312294960022 0.4589157223701477 -0.4
30.218746185302734 13.261266708374023 -63 0.20297717303037643 0.45677313208580017 0.5
27.8079776763916 14.406097412109375 -63 0.22926507393519083 0.4437049329280853 0.5
25.524581909179688 15.787599563598633 -63 0.18182053830888537 0.27893006801605225 0.6666666666666666
23.391719818115234 17.391761779785156 -63 0.17096201940016315 0.21209552071311258 0.7272727272727273
21.43102264404297 19.202316284179688 -63 0.210570764541626 0.21320673227310183 0.7000000000000001
19.662376403808594 21.200899124145508 -63 0.38491257031758624 0.3182433644930521 0.5
18.10371971130371 23.367238998413086 -63 0.49796396493911743 0.3334973812103272 0.4
16.77086067199707 25.679365158081055 -63 0.4408184786637624 0.2347671240568161 0.5
15.677315711975098 28.11382484436035 -63 0.10271027132316872 0.04205298975661949 0.8888888888888888
14.834178924560547 30.645931243896484 -63 0.2873317301273346 0.08507426083087921 0.7000000000000001
14.25 33.25 -63 0.44310078024864197 0.19081534941991168 0.5
12.25 35.25 -63 0.3535533845424652 0.6035533845424652 0.25
-12.25 35.25 -63 -0.1414213538169861 0.5414213538169861 0.4
-14.25 33.25 -63 -0.398313562075297 0.2722445875406265 0.5
-14.834617614746094 30.648487091064453 -63 -0.5800063014030457 0.1509396255016327 0.4
-15.677703857421875 28.118892669677734 -63 -0.5619021773338319 0.20846107006073 0.4
-16.770723342895508 25.686826705932617 -63 -0.538109278678894 0.26387206315994266 0.4
-18.10261344909668 23.376909255981445 -63 -0.5088685154914856 0.3166115999221802 0.4
-19.659887313842773 21.212528228759766 -63 -0.3953967293103536 0.3051212430000305 0.5
-21.42677879333496 19.215595245361328 -63 -0.4352797865867615 0.41197277307510377 0.4
-23.385400772094727 17.406330108642578 -63 -0.3916766524314881 0.4536292433738709 0.4
-25.515920639038086 15.803044319152832 -63 -0.34410847425460817 0.4906928062438965 0.4
-27.796775817871094 14.421974182128906 -63 -0.29305618405342104 0.5227888107299805 0.4
-30.20486831665039 13.277101516723633 -63 -0.2322182740483965 0.5219181435448782 0.42857142857142855
5.81488037109375 -12.735272407531738 -63 0.18377294391393661 -0.46500201523303986 0.5
7.35920524597168 -12.122111320495605 -63 0.2023418962955475 -0.5641333818435669 0.4
8.957367897033691 -11.667380332946777 -63 0.14457797408103942 -0.5816235303878784 0.4
10.593162536621094 -11.375690460205078 -63 0.07112321878472963 -0.49434613188107807 0.5
12.25 -11.25 -63 0.0554999653249979 -0.4965917319059372 0.5
-5.81488037109375 -12.735272407531738 -63 -0.2450305918852488 -0.6200026869773865 0.3333333333333333
-4.420466899871826 -13.283804893493652 -63 -0.14918462932109833 -0.47655799984931946 0.5
-2.975414514541626 -13.680164337158203 -63 -0.11687656044960022 -0.5877273559570313 0.4
-1.4962775707244873 -13.919811248779297 -63 -0.05339266657829285 -0.5968524098396302 0.4
-1.2434497875801753E-13 -14 -63 0.01070307195186615 -0.5991402268409729 0.4
1.4962775707244873 -13.919811248779297 -63 0.07467611730098725 -0.5945645928382873 0.4
2.975414514541626 -13.680164337158203 -63 0.1377935528755188 -0.583177936077118 0.4
4.420466899871826 -13.283804893493652 -63 0.16611047089099884 -0.47092556953430176 0.5
-47.73528289794922 6 -63 -0.11339062994176692 0.24794350429014728 0.7272727272727273
-48.367042541503906 5.697425842285156 -63 -0.3712761551141739 0.6505380868911743 0.25
-48.96253967285156 5.328568935394287 -63 -0.35134391784667973 0.48541405200958254 0.4
-49.51485061645508 4.897721290588379 -63 -0.4015815615653992 0.44474874734878544 0.4
-50.01754379272461 4.40989351272583 -63 -0.44714739322662356 0.39890910387039186 0.4
-50.46476745605469 3.8707621097564697 -63 -0.48750904798507694 0.3484312176704407 0.4
-50.8513298034668 3.2865991592407227 -63 -0.5222009897232056 0.29389678239822387 0.4
-51.17272186279297 2.664200782775879 -63 -0.5508167862892152 0.23594549894332886 0.4
-51.42521667480469 2.0108072757720947 -63 -0.4093032223837716 0.12517781768526348 0.5714285714285714
-51.605865478515625 1.3340204954147339 -63 -0.5885662317276001 0.11251254677772522 0.4
-51.71257400512695 0.6417140960693359 -63 -0.5972606658935548 0.04846567511558533 0.4
-51.74409103393555 -0.05805795267224312 -63 -0.5990066170692444 -0.016140691936016083 0.4
-51.70006561279297 -0.7571545243263245 -63 -0.5937836050987244 -0.08056196868419647 0.4
-51.580997467041016 -1.4474425315856934 -63 -0.5816528081893921 -0.14404621422290803 0.4
-51.38827896118164 -2.1208913326263428 -63 -0.562754774093628 -0.20585506558418276 0.4
-51.1241455078125 -2.7696659564971924 -63 -0.5373103022575378 -0.26526775360107424 0.4
-50.79167175292969 -3.386219024658203 -63 -0.5056151032447815 -0.32159396409988406 0.4
-50.39473342895508 -3.9633772373199463 -63 -0.46803706884384155 -0.3741798758506775 0.4
-49.93793869018555 -4.494426727294922 -63 -0.42501398324966433 -0.42241261005401615 0.4
-49.426605224609375 -4.973188400268555 -63 -0.37704679965972904 -0.46573064327239994 0.4
-48.86668014526367 -5.394093036651611 -63 -0.3246928095817566 -0.5036306858062745 0.4
-48.26468276977539 -5.752244472503662 -63 -0.27290645837783817 -0.5336537718772888 0.4
-48.03693771362305 -5.8596720695495605 -63 -0.22502992153167725 -0.5556958198547364 0.4
-8.957367897033691 -11.667380332946777 -63 -0.1249532401561737 -0.5861530542373657 0.4
-7.35920524597168 -12.122111320495605 -63 -0.18327230215072632 -0.5706136941909791 0.4
-47.80097961425781 -5.947621822357178 -63 -0.17763509750366213 -0.5726099610328674 0.4
-47.5584831237793 -6.01547384262085 -63 -0.10749000310897827 -0.48790825406710303 0.5
-47.3111457824707 -6.062750339508057 -63 -0.06863621090139661 -0.42295463596071514 0.5714285714285714
-12.25 -11.25 -63 -0.044399972259998324 -0.3972733855247498 0.6000000000000001
-10.593162536621094 -11.375690460205078 -63 -0.06536721885204315 -0.5957481384277344 0.4
47.5584831237793 -6.01547384262085 -63 0.14533060491085054 -0.5816488146781922 0.4
47.80097961425781 -5.947621822357178 -63 0.1935969889163971 -0.5674121975898743 0.4
47.73528289794922 6 -63 0.11978305578231813 0.27494436502456665 0.7000000000000001
47.3111457824707 -6.062750339508057 -63 0.1043680489063263 -0.5907337427139282 0.4
48.26468276977539 -5.752244472503662 -63 0.18115057051181793 -0.3279055953025818 0.625
49.51485061645508 4.897721290588379 -63 0.192656147480011 0.22945786118507386 0.7000000000000001
48.96253967285156 5.328568935394287 -63 0.3336448073387146 0.49774540662765504 0.4
48.03693771362305 -5.8596720695495605 -63 0.24050096273422242 -0.5491772055625915 0.4
48.367042541503906 5.697425842285156 -63 0.2780961513519287 0.5307841777801514 0.4
48.86668014526367 -5.394093036651611 -63 0.34261025190353395 -0.49161723852157596 0.4
49.426605224609375 -4.973188400268555 -63 0.39356590509414674 -0.4518574953079224 0.4
49.93793869018555 -4.494426727294922 -63 0.43994295597076416 -0.4068408727645874 0.4
50.39473342895508 -3.9633772373199463 -63 0.4812022089958191 -0.3570906162261963 0.4
50.79167175292969 -3.386219024658203 -63 0.3691877552441188 -0.21656183685575212 0.5714285714285714
50.01754379272461 4.40989351272583 -63 0.43249911069869995 0.4147454380989075 0.4
50.46476745605469 3.8707621097564697 -63 0.33903740133557997 0.26125142404011314 0.5714285714285714
51.1241455078125 -2.7696659564971924 -63 0.5465099930763245 -0.2457563281059265 0.4
51.38827896118164 -2.1208913326263428 -63 0.25899993831461127 -0.08430237661708485 0.7272727272727273
51.42521667480469 2.0108072757720947 -63 0.5663451910018921 0.19576110839843752 0.4
51.605865478515625 1.3340204954147339 -63 0.5841350317001343 0.13362466394901276 0.4
51.71257400512695 0.6417140960693359 -63 0.5951290488243103 0.06993305236101151 0.4
51.17272186279297 2.664200782775879 -63 0.5419677019119263 0.2556177258491516 0.4
50.8513298034668 3.2865991592407227 -63 0.5112833619117737 0.3125036120414734 0.4
51.74409103393555 -0.05805795267224312 -63 0.49933287501335144 0.00452400247255961 0.5
51.580997467041016 -1.4474425315856934 -63 0.5864606618881226 -0.12301703691482545 0.4
51.70006561279297 -0.7571545243263245 -63 0.7453733682632446 -0.0739200972020626 0.25
3 0 1 2
3 1 3 2
3 4 5 6
3 5 7 6
3 7 5 2
3 5 0 2
3 6 7 3
3 7 2 3
3 3 8 9
3 10 3 11
3 3 12 11
3 13 14 6
3 10 15 3
3 15 16 3
3 3 16 17
3 17 18 3
3 18 19 3
3 3 19 20
3 6 21 22
3 9 23 3
3 23 24 3
3 3 24 25
3 25 26 3
3 26 27 3
3 3 27 28
3 20 29 3
3 29 30 3
3 3 30 6
3 30 31 6
3 6 31 13
3 14 32 6
3 32 33 6
3 6 33 34
3 34 35 6
3 35 36 6
3 6 36 37
3 38 39 4
3 39 40 4
3 4 41 42
3 43 44 45
3 44 46 45
3 45 46 47
3 28 48 3
3 48 49 3
3 3 49 50
3 50 51 3
3 51 52 3
3 3 52 53
3 37 54 6
3 54 55 6
3 6 55 21
3 22 56 6
3 56 57 6
3 6 57 58
3 40 59 4
3 59 60 4
3 4 60 41
3 42 61 4
3 61 62 4
3 4 62 63
3 8 3 64
3 3 1 64
3 64 1 65
3 66 1 67
3 1 68 67
3 69 70 66
3 1 71 72
3 73 74 1
3 74 75 1
3 58 76 6
3 76 77 6
3 6 77 4
3 77 78 4
3 4 78 38
3 63 79 4
3 79 80 4
3 4 80 81
3 81 82 4
3 82 83 4
3 4 83 1
3 83 84 1
3 1 84 85
3 85 86 1
3 86 87 1
3 1 87 68
3 75 88 1
3 88 89 1
3 1 89 65
3 12 90 91
3 92 93 94
3 93 95 94
3 43 45 66
3 45 96 66
3 66 96 69
3 97 98 1
3 98 99 1
3 1 99 100
3 53 101 3
3 101 102 3
3 3 102 12
3 102 103 12
3 12 103 90
3 91 104 12
3 104 105 12
3 12 105 106
3 106 107 12
3 107 108 12
3 12 108 109
3 109 110 12
3 110 111 12
3 12 111 92
3 111 112 92
3 92 112 93
3 113 114 46
3 114 115 46
3 46 115 47
3 70 116 66
3 116 117 66
3 66 117 1
3 117 118 1
3 1 118 71
3 100 119 1
3 119 120 1
3 1 120 73
3 95 93 46
3 93 121 46
3 46 121 113
3 72 122 1
3 122 123 1
3 1 123 97
3 64 124 8
3 124 125 8
3 8 125 9
3 125 126 9
3 9 126 23
3 126 127 23
3 23 127 24
3 127 128 24
3 24 128 25
3 128 129 25
3 25 129 26
3 129 130 26
3 26 130 27
3 130 131 27
3 27 131 28
3 131 132 28
3 28 132 48
3 132 133 48
3 48 133 49
3 133 134 49
3 49 134 50
3 134 135 50
3 50 135 51
3 135 136 51
3 51 136 52
3 136 137 52
3 52 137 53
3 137 138 53
3 53 138 101
3 138 139 101
3 101 139 102
3 139 140 102
3 102 140 103
3 140 141 103
3 103 141 90
3 141 142 90
3 90 142 91
3 142 143 91
3 91 143 104
3 143 144 104
3 104 144 105
3 144 145 105
3 105 145 106
3 145 146 106
3 106 146 107
3 146 147 107
3 107 147 108
3 147 148 108
3 108 148 109
3 148 149 109
3 109 149 110
3 149 150 110
3 110 150 111
3 150 151 111
3 111 151 112
3 151 152 112
3 112 152 93
3 152 153 93
3 93 153 121
3 153 154 121
3 121 154 113
3 154 155 113
3 113 155 114
3 155 156 114
3 114 156 115
3 156 157 115
3 115 157 47
3 157 158 47
3 47 158 45
3 158 159 45
3 45 159 96
3 159 160 96
3 96 160 69
3 160 161 69
3 69 161 70
3 161 162 70
3 70 162 116
3 162 163 116
3 116 163 117
3 163 164 117
3 117 164 118
3 164 165 118
3 118 165 71
3 165 166 71
3 71 166 72
3 166 167 72
3 72 167 122
3 167 168 122
3 122 168 123
3 168 169 123
3 123 169 97
3 169 170 97
3 97 170 98
3 170 171 98
3 98 171 99
3 171 172 99
3 99 172 100
3 172 173 100
3 100 173 119
3 173 174 119
3 119 174 120
3 174 175 120
3 120 175 73
3 175 176 73
3 73 176 74
3 176 177 74
3 74 177 75
3 177 178 75
3 75 178 88
3 178 179 88
3 88 179 89
3 179 180 89
3 89 180 65
3 180 181 65
3 65 181 64
3 181 124 64
3 92 182 12
3 182 183 12
3 12 183 11
3 183 184 11
3 11 184 10
3 184 185 10
3 10 185 15
3 185 186 15
3 15 186 16
3 186 187 16
3 16 187 17
3 187 188 17
3 17 188 18
3 188 189 18
3 18 189 19
3 189 190 19
3 19 190 20
3 190 191 20
3 20 191 29
3 191 192 29
3 29 192 30
3 192 193 30
3 30 193 31
3 193 194 31
3 31 194 13
3 194 195 13
3 13 195 14
3 195 196 14
3 14 196 32
3 196 197 32
3 32 197 33
3 197 198 33
3 33 198 34
3 198 199 34
3 34 199 35
3 199 200 35
3 35 200 36
3 200 201 36
3 36 201 37
3 201 202 37
3 37 202 54
3 202 203 54
3 54 203 55
3 203 204 55
3 55 204 21
3 204 205 21
3 21 205 22
3 205 206 22
3 22 206 56
3 206 207 56
3 56 207 57
3 207 208 57
3 57 208 58
3 208 209 58
3 58 209 76
3 209 210 76
3 76 210 77
3 210 211 77
3 77 211 78
3 211 212 78
3 78 212 38
3 212 213 38
3 38 213 39
3 213 214 39
3 39 214 40
3 214 215 40
3 40 215 59
3 215 216 59
3 59 216 60
3 216 217 60
3 60 217 41
3 217 218 41
3 41 218 42
3 218 219 42
3 42 219 61
3 219 220 61
3 61 220 62
3 220 221 62
3 62 221 63
3 221 222 63
3 63 222 79
3 222 223 79
3 79 223 80
3 223 224 80
3 80 224 81
3 224 225 81
3 81 225 82
3 225 226 82
3 82 226 83
3 226 227 83
3 83 227 84
3 227 228 84
3 84 228 85
3 228 229 85
3 85 229 86
3 229 230 86
3 86 230 87
3 230 231 87
3 87 231 68
3 231 232 68
3 68 232 67
3 232 233 67
3 67 233 66
3 233 234 66
3 66 234 43
3 234 235 43
3 43 235 44
3 235 236 44
3 44 236 46
3 236 237 46
3 46 237 95
3 237 238 95
3 95 238 94
3 238 239 94
3 94 239 92
3 239 182 92
3 240 241 242
3 241 243 242
3 244 245 246
3 247 248 249
3 250 251 252
3 248 253 249
3 253 254 249
3 249 254 255
3 254 256 255
3 255 256 257
3 256 258 257
3 257 258 259
3 246 245 252
3 245 260 252
3 252 260 250
3 261 262 263
3 262 264 263
3 265 266 267
3 266 268 267
3 267 268 262
3 268 269 262
3 262 269 264
3 259 258 267
3 258 270 267
3 267 270 271
3 247 249 272
3 249 252 272
3 272 252 273
3 251 274 252
3 274 275 252
3 252 275 273
3 276 277 246
3 277 278 246
3 246 278 244
3 279 280 281
3 282 283 284
3 285 286 267
3 286 287 267
3 267 287 288
3 246 289 276
3 289 290 276
3 276 290 291
3 290 279 291
3 291 279 292
3 279 281 292
3 261 293 262
3 293 282 262
3 262 282 294
3 282 284 294
3 271 295 267
3 295 296 267
3 267 296 297
3 288 298 267
3 298 299 267
3 267 299 300
3 301 302 300
3 302 303 300
3 300 303 267
3 303 304 267
3 267 304 265
3 297 305 267
3 305 306 267
3 267 306 307
3 307 308 267
3 308 309 267
3 267 309 285
3 310 311 312
3 311 313 312
3 313 314 312
3 312 314 315
3 301 300 316
3 300 317 316
3 316 317 318
3 280 279 312
3 279 319 312
3 312 319 310
3 315 320 312
3 320 321 312
3 312 321 322
3 322 323 312
3 323 324 312
3 312 324 325
3 326 327 328
3 325 329 312
3 329 330 312
3 312 330 331
3 330 332 331
3 326 328 330
3 328 333 330
3 330 333 332
3 334 335 318
3 335 336 318
3 318 336 316
3 337 290 338
3 290 289 338
3 338 289 339
3 289 246 339
3 339 246 340
3 246 252 340
3 340 252 341
3 252 249 341
3 341 249 342
3 249 255 342
3 342 255 343
3 255 257 343
3 343 257 344
3 257 259 344
3 344 259 345
3 259 267 345
3 345 267 346
3 267 262 346
3 346 262 347
3 262 294 347
3 348 284 349
3 284 283 349
3 350 282 351
3 282 293 351
3 351 293 352
3 293 261 352
3 352 261 353
3 261 263 353
3 353 263 354
3 263 264 354
3 354 264 355
3 264 269 355
3 355 269 356
3 269 268 356
3 356 268 357
3 268 266 357
3 357 266 358
3 266 265 358
3 358 265 359
3 265 304 359
3 359 304 360
3 304 303 360
3 347 294 348
3 294 284 348
3 361 245 362
3 245 244 362
3 362 244 363
3 244 278 363
3 363 278 364
3 278 277 364
3 364 277 365
3 277 276 365
3 349 283 350
3 283 282 350
3 366 247 272
3 366 272 367
3 272 273 367
3 367 273 368
3 273 275 368
3 368 275 369
3 275 274 369
3 369 274 370
3 274 251 370
3 370 251 371
3 251 250 371
3 371 250 372
3 250 260 372
3 372 260 373
3 260 245 373
3 373 245 361
3 303 302 360
3 302 374 360
3 374 302 301
3 374 301 375
3 301 316 375
3 375 316 376
3 316 336 376
3 376 336 377
3 336 335 377
3 377 335 378
3 335 334 378
3 378 334 379
3 334 318 379
3 379 318 380
3 318 317 380
3 380 317 381
3 317 300 381
3 381 300 382
3 300 299 382
3 382 299 383
3 299 298 383
3 383 298 384
3 298 288 384
3 384 288 385
3 288 287 385
3 385 287 386
3 287 286 386
3 386 286 387
3 286 285 387
3 387 285 388
3 285 309 388
3 388 309 389
3 309 308 389
3 389 308 390
3 308 307 390
3 390 307 391
3 307 306 391
3 391 306 392
3 306 305 392
3 392 305 393
3 305 297 393
3 393 297 394
3 297 296 394
3 394 296 395
3 395 396 345
3 395 345 394
3 339 361 362
3 345 357 358
3 346 352 353
3 361 339 373
3 339 340 373
3 373 340 372
3 397 398 341
3 396 399 345
3 399 400 345
3 345 400 344
3 400 401 344
3 344 401 343
3 353 354 346
3 354 355 346
3 346 355 345
3 355 356 345
3 345 356 357
3 343 401 342
3 401 402 342
3 342 402 341
3 402 403 341
3 341 403 397
3 404 405 406
3 362 363 339
3 363 364 339
3 339 364 338
3 364 365 338
3 338 365 337
3 369 370 340
3 370 371 340
3 340 371 372
3 382 383 345
3 383 384 345
3 345 384 385
3 385 386 345
3 386 387 345
3 345 387 388
3 348 349 347
3 349 350 347
3 347 350 346
3 350 351 346
3 346 351 352
3 337 365 406
3 365 407 406
3 406 407 404
3 398 366 341
3 366 367 341
3 341 367 340
3 367 368 340
3 340 368 369
3 388 389 345
3 389 390 345
3 345 390 391
3 391 392 345
3 392 393 345
3 345 393 394
3 358 359 345
3 359 360 345
3 345 360 382
3 360 374 382
3 382 374 381
3 408 409 410
3 405 411 406
3 411 408 406
3 406 408 412
3 408 410 412
3 408 413 409
3 413 414 409
3 409 414 415
3 375 376 374
3 376 377 374
3 374 377 378
3 378 379 374
3 379 380 374
3 374 380 381
3 415 416 409
3 416 417 409
3 409 417 418
3 418 417 419
3 417 420 419
3 419 420 421
3 422 421 423
3 421 424 423
3 422 425 421
3 425 426 421
3 421 426 419
3 424 421 427
3 421 428 427
3 427 428 429
3 395 296 295
3 395 295 396
3 295 271 396
3 396 271 399
3 271 270 399
3 399 270 400
3 270 258 400
3 400 258 401
3 258 256 401
3 256 402 401
3 402 256 403
3 256 254 403
3 403 254 397
3 254 253 397
3 397 253 398
3 253 248 398
3 398 248 366
3 248 247 366
3 276 291 365
3 291 407 365
3 407 291 292
3 407 292 404
3 292 281 404
3 404 281 405
3 281 280 405
3 405 280 411
3 280 312 411
3 411 312 408
3 408 312 331
3 408 331 413
3 331 332 413
3 413 332 414
3 332 333 414
3 414 333 415
3 333 328 415
3 415 328 416
3 328 327 416
3 416 327 417
3 327 326 417
3 417 326 420
3 326 330 420
3 420 330 421
3 330 329 421
3 421 329 428
3 329 325 428
3 428 325 429
3 325 324 429
3 429 324 427
3 324 323 427
3 427 323 424
3 323 322 424
3 424 322 423
3 322 321 423
3 423 321 422
3 321 320 422
3 422 320 425
3 320 315 425
3 425 315 426
3 315 314 426
3 426 314 419
3 314 313 419
3 419 313 418
3 313 311 418
3 418 311 409
3 311 310 409
3 409 310 410
3 310 319 410
3 410 319 412
3 319 279 412
3 412 279 406
3 279 290 406
3 290 337 406
