ply
format ascii 1.0
comment Exported by Aspose.3D 23.9.0
element vertex 178
property float x
property float y
property float z
property float nx
property float ny
property float nz
element face 352
property list uchar int vertex_index
end_header
14.25 -9.25 -63 0.7734590768814087 -0.20203050545283724 -0.14285714285714285
12.25 -11.25 -63 0.1414213538169861 -0.5414213538169861 -0.4
14.25 33.25 -63 0.34142135381698613 0.1414213538169861 -0.6000000000000001
-12.25 -11.25 -63 -0.1767766922712326 -0.3017766922712326 -0.625
12.25 35.25 -63 0.23570225636164346 0.5690355896949768 -0.3333333333333333
-14.25 -9.25 -63 -0.7414213538169862 -0.1414213538169861 -0.2
-14.25 33.25 -63 -0.5690355896949768 0.23570225636164346 -0.3333333333333333
-12.25 35.25 -63 -0.11785112818082173 0.6178511281808217 -0.3333333333333333
8.5 35.25 -23 0.2857142147563617 0.5714285714285714 0.14285714285714285
12.25 35.25 -22.999998092651367 0.03721591853958176 0.08984754454205694 0.894736842105263
-12.25 35.25 -22.999998092651367 -0.06734328527256064 0.11496236003964522 0.8571428571428571
-8.5 35.25 -23 -0.166666583882422 0.6666666666666666 0.16666666666666666
-8.5 35.25 -20 -0.4 0.2 0.4
8.5 35.25 -20 0.25 0.5 0.25
14.25 33.25 -22.999998092651367 0.5690355453462861 0.23570212922872713 0.3333333333333333
-14.25 33.25 -22.999998092651367 -0.5690354241265254 0.23570209079319207 0.3333333333333333
14.25 29.5 -23 0.6666666666666666 0.16666658388244096 0.16666666666666666
11 29.5 -23 0.014951922034536276 0.5710369163650739 0.42857142857142855
14.25 29.5 -20 0.25 0.5 0.25
11 29.5 -20 0.013082967139780521 0.49965743720531464 0.5
-8.5 32 -23 -0.6662096946972724 0.01744507334876566 0.3333333333333333
-8.5 32 -20 -0.49965739250183105 0.0130838081240654 0.5
8.5 32 -23 0.4996571495440776 0.013083801899083092 0.5
8.5 32 -20 0.49965739250183105 0.0130838081240654 0.5
10.738678932189941 29.513694763183594 -23 0.0730421835494287 0.5948008346188886 0.4
8.51369571685791 31.738679885864258 -23 0.5969894021566006 0.05222037648191034 0.4
9.75 29.834938049316406 -23 0.3086534289869661 0.5136696682960065 0.4
9.983159065246582 29.716135025024414 -23 0.25327062304457115 0.5431180649795863 0.4
8.554631233215332 31.4802188873291 -23 0.5882604012317814 0.11433677157675107 0.4
8.622358322143555 31.227458953857422 -23 0.5730860271021925 0.17520199896107158 0.4
8.71613597869873 30.9831600189209 -23 0.5516332207050709 0.23414548505482174 0.4
10.227458000183105 29.622358322143555 -23 0.1951098533826553 0.5666176444897076 0.4
10.480220794677734 29.55463218688965 -23 0.13481557446105796 0.5839076841509211 0.4
8.83493709564209 30.75 -23 0.5241366338027433 0.29052395830360356 0.4
8.977458000183105 30.530536651611328 -23 0.49089786605819086 0.34371882952084437 0.4
9.142138481140137 30.327173233032227 -23 0.45227995757722966 0.393149036665227 0.4
9.327173233032227 30.14213752746582 -23 0.4087065067669471 0.43827196273704205 0.4
9.530536651611328 29.97745704650879 -23 0.36065503038476837 0.47859302019378447 0.4
12.25 -11.25 -22.999998092651367 0.20203034318167362 -0.3448874222954064 -0.5714285714285714
-12.25 -11.25 -22.999998092651367 -0.035355233263576084 -0.13535510249073682 -0.8500000000000001
-8.51369571685791 31.738679885864258 -20 -0.4974913199742635 0.043516996006170906 0.5
-8.51369571685791 31.738679885864258 -23 -0.5948012441213223 0.07303963219155847 0.4
-8.554631233215332 31.4802188873291 -20 -0.49021713932355243 0.09528067211310068 0.5
-8.554631233215332 31.4802188873291 -23 -0.5839077005214847 0.13481467148577053 0.4
-8.622358322143555 31.227458953857422 -20 -0.5730861783027649 0.17520204782485962 0.4
-8.622358322143555 31.227458953857422 -23 -0.5666170396372877 0.19511144043217143 0.4
-8.71613597869873 30.9831600189209 -20 -0.551633358001709 0.23414554595947268 0.4
-8.71613597869873 30.9831600189209 -23 -0.5431183753338246 0.25327010024723506 0.4
-8.83493709564209 30.75 -20 -0.524136757850647 0.2905240297317505 0.4
-8.83493709564209 30.75 -23 -0.513669724394174 0.30865321169105475 0.4
-8.977458000183105 30.530536651611328 -20 -0.49089797735214236 0.3437189102172852 0.4
-8.977458000183105 30.530536651611328 -23 -0.4785929043768249 0.3606552032314767 0.4
-9.142138481140137 30.327173233032227 -20 -0.45228005647659303 0.39314912557601933 0.4
-9.142138481140137 30.327173233032227 -23 -0.43827196006441227 0.4087065046026965 0.4
-9.327173233032227 30.14213752746582 -20 -0.4087065935134888 0.43827205896377563 0.4
-9.327173233032227 30.14213752746582 -23 -0.3931490388294776 0.45227996024985945 0.4
-9.530536651611328 29.97745704650879 -20 -0.22540944069623947 0.2991207018494606 0.625
-9.530536651611328 29.97745704650879 -23 -0.3437184778602017 0.4908980891635111 0.4
-9.75 29.834938049316406 -20 -0.3086534917354584 0.513669776916504 0.4
-9.75 29.834938049316406 -23 -0.2905249206575746 0.5241361843139203 0.4
-9.983159065246582 29.716135025024414 -20 -0.25327067375183104 0.5431181788444519 0.4
-9.983159065246582 29.716135025024414 -23 -0.2341448217197268 0.5516334348717067 0.4
-10.227458000183105 29.622358322143555 -20 -0.1951098918914795 0.5666177630424499 0.4
-10.227458000183105 29.622358322143555 -23 -0.17520067417199245 0.5730864889034649 0.4
-10.480220794677734 29.55463218688965 -20 -0.13481560051441194 0.5839078068733216 0.4
-10.480220794677734 29.55463218688965 -23 -0.11433964150531609 0.588260039154278 0.4
-10.738678932189941 29.513694763183594 -20 -0.0730421967804432 0.5948009610176087 0.4
-10.738678932189941 29.513694763183594 -23 -0.05222064572694372 0.5969892787564618 0.4
-11 29.5 -20 -0.017443956186374027 0.6662099162737528 0.3333333333333333
-11 29.5 -23 -0.013082962943693932 0.4996572761483762 0.5
10.738678932189941 29.513694763183594 -20 0.05222065895795822 0.596989405155182 0.4
10.480220794677734 29.55463218688965 -20 0.11433966755867005 0.5882601618766785 0.4
10.227458000183105 29.622358322143555 -20 0.14600059390068054 0.47757217288017273 0.5
9.983159065246582 29.716135025024414 -20 0.2341448724269867 0.5516335487365723 0.4
9.75 29.834938049316406 -20 0.2905249834060669 0.5241362929344178 0.4
9.530536651611328 29.97745704650879 -20 0.3437185525894165 0.4908981919288635 0.4
9.327173233032227 30.14213752746582 -20 0.39314912557601933 0.45228005647659303 0.4
9.142138481140137 30.327173233032227 -20 0.43827205896377563 0.4087065935134888 0.4
8.977458000183105 30.530536651611328 -20 0.4785930156707764 0.3606552839279175 0.4
8.83493709564209 30.75 -20 0.5136698484420776 0.3086532831192017 0.4
8.71613597869873 30.9831600189209 -20 0.4525987605253855 0.21105846762657166 0.5
8.622358322143555 31.227458953857422 -20 0.5666171908378601 0.19511148929595948 0.4
8.554631233215332 31.4802188873291 -20 0.24329494436581928 0.05617279435197512 0.75
8.51369571685791 31.738679885864258 -20 0.49566785494486487 0.060866375764211014 0.5
-14.25 29.5 -23 -0.4999999379118307 0.2499998974195492 0.25
14.25 -9.25 -22.999998092651367 0.10041775916783197 -0.04159444058036384 -0.8823529411764706
-14.25 29.5 -20 -0.5 0.25 0.25
2.130981683731079 -19.88614845275879 -20 0.0744476430118084 -0.5945979714393616 0.4
4.237701892852783 -19.5458927154541 -20 0.13737773299217224 -0.5832808613777161 0.4
14.25 14.033442497253418 -20 0.06108710633383857 0.014725793732537164 0.9333333333333333
6.296175479888916 -18.983102798461914 -20 0.19874404072761537 -0.5653228998184204 0.4
8.282965660095215 -18.204187393188477 -20 0.25784711837768554 -0.5409289002418518 0.4
10.175454139709473 -17.218017578125 -20 0.314014732837677 -0.510376262664795 0.4
11.952095031738281 -16.035818099975586 -20 0.36660743951797486 -0.474012839794159 0.4
-16.899925231933594 10.695444107055664 -20 -0.511981749534607 0.3113902568817139 0.4
-15.664132118225098 12.43523120880127 -20 -0.47588902711868286 0.36416866779327395 0.4
-14.25 14.033442497253418 -20 -0.11894474143073672 0.06311054456801642 0.8571428571428571
-17.94331169128418 8.83388900756836 -20 -0.542245602607727 0.25506641864776614 0.4
-18.782411575317383 6.871757984161377 -20 -0.5663359284400941 0.19583870172500611 0.4
-19.407670974731445 4.831391334533691 -20 -0.5839785099029541 0.13438110351562502 0.4
-19.81197166442871 2.736018657684326 -20 -0.5949723720550537 0.07139377593994141 0.4
-19.990711212158203 0.6094964742660522 -20 -0.5991923809051514 0.007593653351068497 0.4
-19.941852569580078 -1.5239650011062622 -20 -0.5965905666351319 -0.056292882189154625 0.4
-19.665956497192383 -3.640075922012329 -20 -0.5871964812278748 -0.11953857839107514 0.4
-19.166160583496094 -5.714744567871094 -20 -0.571117103099823 -0.18142334520816805 0.4
-18.44815444946289 -7.7243499755859375 -20 -0.5485353946685791 -0.24124279618263245 0.4
-17.52011489868164 -9.646012306213379 -20 -0.5197087049484254 -0.2983153522014618 0.4
-16.392606735229492 -11.457854270935059 -20 -0.48496503829956056 -0.35199161767959597 0.4
-15.07846736907959 -13.139246940612793 -20 -0.44469996690750124 -0.40166046619415285 0.4
-13.592658042907715 -14.671048164367676 -20 -0.39937199354171754 -0.44675631523132325 0.4
-11.952095031738281 -16.035818099975586 -20 -0.3494970202445984 -0.48676587343215943 0.4
-10.175454139709473 -17.218017578125 -20 -0.2956428647041321 -0.5212336182594299 0.4
-8.282965660095215 -18.204187393188477 -20 -0.23842324018478395 -0.5497668266296387 0.4
-6.296175479888916 -18.983102798461914 -20 -0.1784887194633484 -0.5720410466194153 0.4
-4.237701892852783 -19.5458927154541 -20 -0.11652206778526307 -0.587802529335022 0.4
13.592658042907715 -14.671048164367676 -20 0.41502612829208374 -0.43225282430648804 0.4
15.07846736907959 -13.139246940612793 -20 0.4587196707725525 -0.38557159900665283 0.4
16.392606735229492 -11.457854270935059 -20 0.4971907019615174 -0.3345005035400391 0.4
-2.130981683731079 -19.88614845275879 -20 -0.053228883445262914 -0.5968717455863953 0.4
-5.17227862102676E-14 -20 -20 0.010670041292905809 -0.599145519733429 0.4
17.52011489868164 -9.646012306213379 -20 0.5300010442733765 -0.2796213150024414 0.4
18.44815444946289 -7.7243499755859375 -20 0.5567774057388306 -0.22155831456184388 0.4
19.166160583496094 -5.714744567871094 -20 0.577214789390564 -0.16097285747528078 0.4
16.899925231933594 10.695444107055664 -20 0.5005696773529053 0.32942252159118657 0.4
19.941852569580078 -1.5239650011062622 -20 0.3738854005932808 -0.02188423043116927 0.625
17.94331169128418 8.83388900756836 -20 0.33301232010126114 0.1713826283812523 0.625
19.990711212158203 0.6094964742660522 -20 0.5985420465469361 0.02892396189272404 0.4
19.81197166442871 2.736018657684326 -20 0.5920530319213867 0.09253328144550324 0.4
19.407670974731445 4.831391334533691 -20 0.5788233280181885 0.15508942008018495 0.4
18.782411575317383 6.871757984161377 -20 0.6987546384334564 0.26984958350658417 0.25
19.665956497192383 -3.640075922012329 -20 0.5910804867744446 -0.09855478703975679 0.4
15.664132118225098 12.43523120880127 -20 0.4626204490661621 0.3808825492858887 0.4
-14.25 14.033442497253418 -23 -0.7914866157684237 0.11044343966091219 -0.16666666666666666
-15.664132118225098 12.43523120880127 -23 -0.46262040883234906 0.38088251755175123 -0.4
-16.899925231933594 10.695444107055664 -23 -0.5005696282636422 0.3294224907583214 -0.4
-17.94331169128418 8.83388900756836 -23 -0.5328196526228766 0.27421217636970996 -0.4
-18.782411575317383 6.871757984161377 -23 -0.5590036388195131 0.21587964081218447 -0.4
-19.407670974731445 4.831391334533691 -23 -0.5788232413848846 0.1550893989010291 -0.4
-19.81197166442871 2.736018657684326 -23 -0.5920529279075993 0.09253326755128449 -0.4
-19.990711212158203 0.6094964742660522 -23 -0.5985419222911901 0.028923958673311392 -0.4
-19.941852569580078 -1.5239650011062622 -23 -0.598216493876896 -0.03501475677480599 -0.4
-19.665956497192383 -3.640075922012329 -23 -0.5910803155970825 -0.09855475459170933 -0.4
-19.166160583496094 -5.714744567871094 -23 -0.5772145957590624 -0.16097279896030017 -0.4
-18.44815444946289 -7.7243499755859375 -23 -0.5567771961366589 -0.22155822615076773 -0.4
-17.52011489868164 -9.646012306213379 -23 -0.5300008307125836 -0.27962119710265937 -0.4
-16.392606735229492 -11.457854270935059 -23 -0.4143253532192356 -0.27875023696193085 -0.5
-15.07846736907959 -13.139246940612793 -23 -0.45871950431488245 -0.38557145384934305 -0.4
-13.592658042907715 -14.671048164367676 -23 -0.4150259800763365 -0.43225266469017926 -0.4
-11.952095031738281 -16.035818099975586 -23 -0.3666073171930577 -0.4740126764993193 -0.4
-10.175454139709473 -17.218017578125 -23 -0.3140146390809861 -0.5103761052321886 -0.4
-8.282965660095215 -18.204187393188477 -23 -0.2578470516035424 -0.5409287550123282 -0.4
-6.296175479888916 -18.983102798461914 -23 -0.19874399699398282 -0.5653227698006958 -0.4
-4.237701892852783 -19.5458927154541 -23 -0.13737770771694643 -0.583280747156033 -0.4
-2.130981683731079 -19.88614845275879 -23 -0.07444763196022866 -0.5945978722181423 -0.4
-5.17227862102676E-14 -20 -23 -0.010670040950724236 -0.5991454341048751 -0.4
2.130981683731079 -19.88614845275879 -23 0.05322887583864464 -0.5968716719809691 -0.4
4.237701892852783 -19.5458927154541 -23 0.11652205434020964 -0.5878024662459609 -0.4
6.296175479888916 -18.983102798461914 -23 0.17848870177464704 -0.572040992695355 -0.4
8.282965660095215 -18.204187393188477 -23 0.23842321945472308 -0.5497667806992652 -0.4
10.175454139709473 -17.218017578125 -23 0.29564284184189943 -0.5212335793248741 -0.4
11.952095031738281 -16.035818099975586 -23 0.29124745007299657 -0.4056380797234157 -0.5
13.592658042907715 -14.671048164367676 -23 0.3993718453259703 -0.44675615561501447 -0.4
15.07846736907959 -13.139246940612793 -23 0.3705830930947229 -0.3347168620293009 -0.5
16.392606735229492 -11.457854270935059 -23 0.48496483605862295 -0.3519914764858527 -0.4
17.52011489868164 -9.646012306213379 -23 0.5197084913876324 -0.2983152343016798 -0.4
18.44815444946289 -7.7243499755859375 -23 0.5485351850664074 -0.24124270777155632 -0.4
19.166160583496094 -5.714744567871094 -23 0.5711169094683214 -0.18142328669318744 -0.4
19.665956497192383 -3.640075922012329 -23 0.5871963100505128 -0.1195385459430277 -0.4
19.941852569580078 -1.5239650011062622 -23 0.5965904195627786 -0.05629287027408978 -0.4
19.990711212158203 0.6094964742660522 -23 0.5991922566494055 0.00759365013165585 -0.4
19.81197166442871 2.736018657684326 -23 0.5949722680412662 0.07139376204572266 -0.4
19.407670974731445 4.831391334533691 -23 0.5839784232696502 0.13438108233646914 -0.4
18.782411575317383 6.871757984161377 -23 0.5663358565128419 0.19583867573192323 -0.4
17.94331169128418 8.83388900756836 -23 0.5422455430685859 0.2550663896074724 -0.4
16.899925231933594 10.695444107055664 -23 0.5119817004453439 0.31139022604884875 -0.4
15.664132118225098 12.43523120880127 -23 0.4758889868848698 0.3641686360591365 -0.4
14.25 14.033442497253418 -23 0.7496399132722129 0.2208868926549409 -0.16666666666666666
-14.25 -9.25 -22.999998092651367 -0.1420123013608248 -0.08318897658655074 -0.8235294117647058
3 0 1 2
3 1 3 2
3 2 3 4
3 5 6 3
3 6 7 3
3 3 7 4
3 8 9 4
3 7 10 11
3 12 13 11
3 13 8 11
3 11 8 7
3 8 4 7
3 9 14 4
3 14 2 4
3 15 10 6
3 10 7 6
3 16 17 18
3 17 19 18
3 11 20 12
3 20 21 12
3 22 8 23
3 8 13 23
3 16 14 17
3 14 9 17
3 17 9 24
3 8 22 9
3 22 25 9
3 26 27 9
3 25 28 9
3 28 29 9
3 9 29 30
3 27 31 9
3 31 32 9
3 9 32 24
3 30 33 9
3 33 34 9
3 9 34 35
3 35 36 9
3 36 37 9
3 9 37 26
3 38 39 1
3 39 3 1
3 21 20 40
3 20 41 40
3 40 41 42
3 41 43 42
3 42 43 44
3 43 45 44
3 44 45 46
3 45 47 46
3 46 47 48
3 47 49 48
3 48 49 50
3 49 51 50
3 50 51 52
3 51 53 52
3 52 53 54
3 53 55 54
3 54 55 56
3 55 57 56
3 56 57 58
3 57 59 58
3 58 59 60
3 59 61 60
3 60 61 62
3 61 63 62
3 62 63 64
3 63 65 64
3 64 65 66
3 65 67 66
3 66 67 68
3 67 69 68
3 19 17 70
3 17 24 70
3 70 24 71
3 24 32 71
3 71 32 72
3 32 31 72
3 72 31 73
3 31 27 73
3 73 27 74
3 27 26 74
3 74 26 75
3 26 37 75
3 75 37 76
3 37 36 76
3 76 36 77
3 36 35 77
3 77 35 78
3 35 34 78
3 78 34 79
3 34 33 79
3 79 33 80
3 33 30 80
3 80 30 81
3 30 29 81
3 81 29 82
3 29 28 82
3 82 28 83
3 28 25 83
3 83 25 23
3 25 22 23
3 20 11 10
3 15 84 10
3 84 69 10
3 69 67 10
3 67 65 10
3 10 65 63
3 63 61 10
3 61 59 10
3 10 59 57
3 57 55 10
3 55 53 10
3 10 53 51
3 51 49 10
3 49 47 10
3 10 47 45
3 45 43 10
3 43 41 10
3 10 41 20
3 85 38 0
3 38 1 0
3 69 84 68
3 84 86 68
3 87 88 89
3 88 90 89
3 90 91 89
3 91 92 89
3 89 92 93
3 94 89 95
3 89 96 95
3 94 97 89
3 97 98 89
3 89 98 99
3 99 100 89
3 100 101 89
3 89 101 102
3 102 103 89
3 103 104 89
3 89 104 105
3 105 106 89
3 106 107 89
3 89 107 108
3 70 89 19
3 89 18 19
3 74 75 96
3 108 109 89
3 109 110 89
3 89 110 111
3 111 112 89
3 112 113 89
3 89 113 114
3 93 115 89
3 115 116 89
3 89 116 117
3 96 56 58
3 64 66 96
3 66 68 96
3 96 68 86
3 114 118 89
3 118 119 89
3 89 119 87
3 117 120 89
3 120 121 89
3 89 121 122
3 75 76 96
3 76 77 96
3 96 77 78
3 78 79 96
3 79 80 96
3 96 80 56
3 123 124 125
3 124 126 125
3 126 127 125
3 127 128 125
3 125 128 129
3 122 130 89
3 130 124 89
3 89 124 131
3 124 123 131
3 70 71 89
3 71 72 89
3 89 72 96
3 72 73 96
3 96 73 74
3 58 60 96
3 60 62 96
3 96 62 64
3 46 48 82
3 48 50 82
3 82 50 52
3 80 81 56
3 81 82 56
3 56 82 54
3 82 52 54
3 23 13 12
3 12 21 23
3 21 40 23
3 23 40 83
3 40 42 83
3 83 42 82
3 42 44 82
3 82 44 46
3 96 132 133
3 96 133 95
3 133 134 95
3 95 134 94
3 134 135 94
3 94 135 97
3 135 136 97
3 97 136 98
3 136 137 98
3 98 137 99
3 137 138 99
3 99 138 100
3 138 139 100
3 100 139 101
3 139 140 101
3 101 140 102
3 140 141 102
3 102 141 103
3 141 142 103
3 103 142 104
3 142 143 104
3 104 143 105
3 143 144 105
3 105 144 106
3 144 145 106
3 106 145 107
3 145 146 107
3 107 146 108
3 146 147 108
3 108 147 109
3 147 148 109
3 109 148 110
3 148 149 110
3 110 149 111
3 149 150 111
3 111 150 112
3 150 151 112
3 112 151 113
3 151 152 113
3 113 152 114
3 152 153 114
3 114 153 118
3 153 154 118
3 118 154 119
3 154 155 119
3 119 155 87
3 155 156 87
3 87 156 88
3 156 157 88
3 88 157 90
3 157 158 90
3 90 158 91
3 158 159 91
3 91 159 92
3 159 160 92
3 92 160 93
3 160 161 93
3 93 161 115
3 161 162 115
3 115 162 116
3 162 163 116
3 116 163 117
3 163 164 117
3 117 164 120
3 164 165 120
3 120 165 121
3 165 166 121
3 121 166 122
3 166 167 122
3 122 167 130
3 167 168 130
3 130 168 124
3 168 169 124
3 124 169 126
3 169 170 126
3 126 170 127
3 170 171 127
3 127 171 128
3 171 172 128
3 128 172 129
3 172 173 129
3 129 173 125
3 173 174 125
3 125 174 123
3 174 175 123
3 123 175 131
3 175 176 131
3 131 176 89
3 2 14 0
3 14 16 0
3 85 0 176
3 0 16 176
3 176 16 89
3 16 18 89
3 144 143 177
3 143 142 177
3 177 142 141
3 141 140 177
3 140 139 177
3 177 139 138
3 138 137 177
3 137 136 177
3 177 136 135
3 135 134 177
3 134 133 177
3 177 133 132
3 144 177 145
3 177 39 145
3 145 39 146
3 163 162 85
3 162 38 85
3 156 39 157
3 39 158 157
3 169 168 85
3 168 167 85
3 85 167 166
3 166 165 85
3 165 164 85
3 85 164 163
3 162 161 38
3 161 160 38
3 38 160 39
3 160 159 39
3 39 159 158
3 150 149 39
3 85 176 175
3 175 174 85
3 174 173 85
3 85 173 172
3 156 155 39
3 155 154 39
3 39 154 153
3 149 148 39
3 148 147 39
3 39 147 146
3 172 171 85
3 171 170 85
3 85 170 169
3 153 152 39
3 152 151 39
3 39 151 150
3 84 15 6
3 5 177 132
3 96 86 132
3 86 84 132
3 132 84 5
3 84 6 5
3 39 177 3
3 177 5 3
