ply
format ascii 1.0
comment Exported by Aspose.3D 23.9.0
element vertex 278
property float x
property float y
property float z
property float nx
property float ny
property float nz
element face 556
property list uchar int vertex_index
end_header
-18.100000381469727 11.100000381469727 -175 -0.30304552270409396 0.161631815617771 0.813217989036015
-10.000000953674316 10.000001907348633 -175 -0.28571416797670335 0.2857122111615488 0.4285714297067562
-4.1181121013256217E-13 11.100000381469727 -175 4.523331741792165E-16 0.3313847834360786 0.874409019947052
9.999999046325684 10.000001907348633 -175 0.3333331959729464 0.16666504108006033 0.499999998675451
18.100006103515625 11.100000381469727 -175 0.20203026997788653 0.2563140492919566 0.8191767420087541
9.999999046325684 -9.999998092651367 -175 0.33333315018614895 -0.222221138504994 0.4444444426783798
18.100006103515625 -11.100000381469727 -175 0.35355324718207726 -0.1885704515575526 0.782087653875351
-4.1181121013256217E-13 -11.100000381469727 -175 4.955423365219081E-16 -0.33138478344653777 0.874409019947052
-10.000000953674316 -9.999998092651367 -175 -0.37499979395923344 -0.12499818476874142 0.5000000019868232
-18.100000381469727 -11.100000381469727 -175 -0.23570211900113242 -0.29903305751076914 0.7890395323435465
16.600000381469727 -14.25 -225.77500915527344 0.20203050545283774 -0.4877447911671156 -0.42857142857142855
17 -13.850000381469727 -225.77500915527344 0.770710676908493 -0.07071067690849304 -0.2
18.100006103515625 -15.449999809265137 -225.77500915527344 0.17677669227123335 -0.2392766922712321 -0.8276650384068489
17 13.850000381469727 -225.77500915527344 0.6707106769084931 0.0707106769084931 -0.30000000000000004
18.100006103515625 15.449999809265137 -225.77500915527344 0.3030457581792567 0.1724438241549895 -0.8030457581792558
16.600000381469727 14.25 -225.77500915527344 0.23570225636164394 0.4023689230283015 -0.5
-4.464538005781449E-13 15.449999809265137 -225.77500915527344 2.313182789736085E-17 0.353553384542456 -0.8535533845424652
-16.600000381469727 14.25 -225.77500915527344 -0.20203050545283774 0.4877447911671156 -0.42857142857142855
-18.100000381469727 15.449999809265137 -225.77500915527344 -0.17677669227123333 0.2392766922712321 -0.8276650384068489
-17 13.850000381469727 -225.77500915527344 -0.770710676908493 0.07071067690849316 -0.19999999999999987
-17 -13.850000381469727 -225.77500915527344 -0.7006460699168119 -0.06428243355317566 -0.27272727272727265
-18.100000381469727 -15.449999809265137 -225.77500915527344 -0.3030457581792567 -0.1724438241549895 -0.8030457581792558
-16.600000381469727 -14.25 -225.77500915527344 -0.235702256361644 -0.4023689230283015 -0.5
-4.464538005781449E-13 -15.449999809265137 -225.77500915527344 -2.313239920343686E-17 -0.353553384542456 -0.8535533845424652
-21.100000381469727 -14.207359313964844 -222.77500915527344 -0.8535533845424652 -0.1666666666666666 -0.2845177948474883
-21.100000381469727 14.207359313964844 -222.77500915527344 -0.8047378460566202 0.1666666666666666 -0.40236892302830995
-18.100000381469727 18.450000762939453 -222.77500915527344 -0.35355338454246527 0.7357022563616434 -0.2845177948474883
-4.4653170050423796E-13 18.450000762939453 -222.77500915527344 -4.510762941935497E-16 0.8535533845424652 -0.35355338454246504
18.100006103515625 18.450000762939453 -222.77500915527344 0.3535533845424657 0.6868867178757985 -0.4023689230283101
-18.100000381469727 18.450000762939453 -210.5500030517578 -0.4242640614509583 0.8217364192008972 0.04146800488233578
-9.5367781227651E-08 18.450000762939453 -210.5500030517578 -7.25901544794321E-17 0.9962983429431915 0.06072848662734041
18.100006103515625 18.450000762939453 -210.5500030517578 0.30304575817925594 0.8716112545558384 0.046970999666622826
-18.100000381469727 14.464370727539062 -177.977783203125 -0.3535533845424653 0.7064743340015411 0.3714131023734808
-4.151313082352559E-13 14.464370727539062 -177.977783203125 4.368715141692406E-17 0.8276861608028412 0.4351375065743923
18.100006103515625 14.464370727539062 -177.977783203125 0.471404512723287 0.666070391734441 0.35017163430651027
-21.100000381469727 -9.963045120239258 -178 -0.8047378460566202 -0.15621771415074676 0.4122003714243573
-21.100000381469727 9.963045120239258 -178 -0.8535533845424652 0.15621771415074676 0.2943492432435357
-21.100000381469727 11.624671936035156 -179.470703125 -0.8047378460566202 0.39017500480016093 0.2051257987817131
-21.100000381469727 15.449999809265137 -210.7328643798828 -0.8901650384068489 0.2638563141226769 0.02147076278924976
-21.100000381469727 15.449999809265137 -221.53236389160156 -0.7803300768136978 0.47855338454246515 -0.12499999999999978
-18.100000381469727 -18.450000762939453 -222.77500915527344 -0.30304575817925633 -0.7316171867506844 -0.34488764830998003
-4.4653170050423796E-13 -18.450000762939453 -222.77500915527344 4.510761221399823E-16 -0.8535533845424652 -0.35355338454246504
18.100006103515625 -18.450000762939453 -222.77500915527344 0.42426406145095835 -0.6828427076339723 -0.3414213538169861
-18.100000381469727 -18.450000762939453 -210.5500030517578 -0.4242640614509583 -0.8217364192008972 0.04146800488233578
-9.5367781227651E-08 -18.450000762939453 -210.5500030517578 -6.518531745682613E-17 -0.9962983429431915 0.06072848662734041
18.100006103515625 -18.450000762939453 -210.5500030517578 0.30304575817925594 -0.8716112545558384 0.046970999666622826
-18.100000381469727 -14.464370727539062 -177.977783203125 -0.4040610109056746 -0.7127170051847185 0.31749811129910605
-4.151313082352559E-13 -14.464370727539062 -177.977783203125 -4.3202055206868534E-17 -0.8276861608028412 0.4351375065743923
18.100006103515625 -14.464370727539062 -177.977783203125 0.4040610109056746 -0.6655997123037065 0.40712112081902363
-21.100000381469727 -11.624671936035156 -179.470703125 -0.8047378460566202 -0.39017500480016093 0.2051257987817131
-21.100000381469727 -15.449999809265137 -210.7328643798828 -0.8901650384068489 -0.2638563141226769 0.021470762789249802
-21.100000381469727 -15.449999809265137 -221.53236389160156 -0.7803300768136978 -0.47855338454246515 -0.12499999999999978
21.100006103515625 14.207359313964844 -222.77500915527344 0.8535533845424652 0.1666666666666666 -0.2845177948474883
21.100006103515625 -14.207359313964844 -222.77500915527344 0.8047378460566202 -0.1666666666666666 -0.40236892302830995
21.100006103515625 9.963045120239258 -178 0.8047378460566202 0.15621771415074678 0.4122003714243574
21.100006103515625 -9.963045120239258 -178 0.8535533845424652 -0.15621771415074678 0.29434924324353573
21.100006103515625 11.624671936035156 -179.470703125 0.8047378460566202 0.390175004800161 0.20512579878171314
21.100006103515625 15.449999809265137 -210.7328643798828 0.8901650384068489 0.2638563141226769 0.021470762789249843
21.100006103515625 15.449999809265137 -221.53236389160156 0.7803300768136978 0.47855338454246515 -0.12499999999999978
21.100006103515625 -11.624671936035156 -179.470703125 0.8047378460566202 -0.390175004800161 0.20512579878171314
21.100006103515625 -15.449999809265137 -210.7328643798828 0.8901650384068489 -0.2638563141226769 0.021470762789249788
21.100006103515625 -15.449999809265137 -221.53236389160156 0.7803300768136978 -0.47855338454246515 -0.12499999999999978
19 9.106517623314048E-13 -260.25 0.26302357017993927 0 -0.7438992410898209
19 2.887758731842041 -259.8348083496094 0.5086823801199595 0.13972042749325433 -0.47584407528241474
19 -2.887758731842041 -259.8348083496094 0.41041885614395146 -0.1676645129919052 -0.5710128903388977
19 -5.541568279266357 -258.62286376953125 0.5086823801199595 -0.26812154054641724 -0.41720525423685706
19 5.541568279266357 -258.62286376953125 0.5086823801199595 0.26812154054641724 -0.41720525423685706
19 -7.746433258056641 -256.7123107910156 0.5086823801199595 -0.37480102976163227 -0.3247669438521067
19 7.746433258056641 -256.7123107910156 0.5086823801199595 0.37480102976163227 -0.3247669438521067
19 -9.32372760772705 -254.2580108642578 0.5086823801199595 -0.4511163830757141 -0.20601795117060342
19 9.32372760772705 -254.2580108642578 0.5086823801199595 0.4511163830757141 -0.20601795117060342
19 -10.145669937133789 -251.45872497558594 0.5086823801199595 -0.4908849497636159 -0.07057860245307286
19 10.145669937133789 -251.45872497558594 0.5086823801199595 0.4908849497636159 -0.07057860245307276
19 -10.145669937133789 -248.54127502441406 0.5086823801199595 -0.4908849497636159 0.07057860245307286
19 10.145669937133789 -248.54127502441406 0.5086823801199595 0.4908849497636159 0.07057860245307296
19 -9.32372760772705 -245.74200439453125 0.5086823801199595 -0.4511163830757141 0.20601795117060342
19 9.32372760772705 -245.74200439453125 0.5086823801199595 0.4511163830757141 0.20601795117060342
19 -7.746433258056641 -243.2876739501953 0.5086823801199595 -0.37480102976163227 0.3247669438521067
19 7.746433258056641 -243.2876739501953 0.5086823801199595 0.37480102976163227 0.3247669438521067
19 -5.541568279266357 -241.3771514892578 0.5086823801199595 -0.26812154054641724 0.41720525423685706
19 5.541568279266357 -241.3771514892578 0.5086823801199595 0.26812154054641724 0.41720525423685706
19 -2.887758731842041 -240.16519165039062 0.5086823801199595 -0.13972042749325433 0.47584407528241474
19 2.887758731842041 -240.16519165039062 0.41041885614395146 0.1676645129919052 0.5710128903388977
19 9.105681703439061E-13 -239.75 0.26302357017993927 0 0.7438992410898209
17 -9.834802627563477 -252.88775634765625 0.3895811438560486 -0.5710128903388977 -0.1676645129919052
17 -10.25 -250 0.3895811438560486 -0.5951193928718567 0
17 -9.834802627563477 -247.11224365234375 0.49131761988004047 -0.47584407528241474 0.13972042749325433
17 -8.622848510742188 -244.45843505859375 0.3895811438560486 -0.5006463050842286 0.3217458486557007
17 -6.71232271194458 -242.25357055664062 0.3895811438560486 -0.3897203326225281 0.44976123571395876
17 -4.2580037117004395 -240.67626953125 0.3895811438560486 -0.24722154140472413 0.541339659690857
17 -1.4587271213531494 -239.85433959960938 0.3895811438560486 -0.08469432294368745 0.5890619397163391
17 1.4587271213531494 -239.85433959960938 0.49131761988004047 0.07057860245307286 0.4908849497636159
17 4.2580037117004395 -240.67626953125 0.3895811438560486 0.24722154140472413 0.541339659690857
17 6.71232271194458 -242.25357055664062 0.3895811438560486 0.3897203326225281 0.44976123571395876
17 8.622848510742188 -244.45843505859375 0.3895811438560486 0.5006463050842286 0.3217458486557007
17 9.834802627563477 -247.11224365234375 0.49131761988004047 0.475844075282415 0.13972042749325436
17 10.25 -250 0.3895811438560486 0.5951193928718571 1.4583777460903403E-16
17 9.834802627563477 -252.88775634765625 0.3895811438560486 0.571012890338898 -0.1676645129919053
17 8.622848510742188 -255.54156494140625 0.49131761988004047 0.4172052542368573 -0.2681215405464174
17 6.71232271194458 -257.7464294433594 0.3895811438560486 0.38972033262252825 -0.44976123571395893
17 4.2580037117004395 -259.32373046875 0.3895811438560486 0.24722154140472427 -0.5413396596908572
17 1.4587271213531494 -260.1456604003906 0.3895811438560486 0.0846943229436875 -0.5890619397163402
17 -1.4587271213531494 -260.1456604003906 0.49131761988004047 -0.07057860245307283 -0.4908849497636171
17 -4.2580037117004395 -259.32373046875 0.3895811438560486 -0.24722154140472413 -0.541339659690857
17 -6.71232271194458 -257.7464294433594 0.3895811438560486 -0.3897203326225281 -0.44976123571395876
17 -8.622848510742188 -255.54156494140625 0.49131761988004047 -0.41720525423685706 -0.26812154054641724
17 -13.850000381469727 -259.0843200683594 0.8901650384068489 -0.2392766922712326 -0.06250000000000003
16.600000381469727 -14.25 -259.25 0.3535533845424652 -0.6868867178757985 -0.4023689230283101
16.600000381469727 -12.25 -261.25 0.2828427076339722 -0.2414213538169861 -0.7828427076339722
17 -12.084314346313477 -260.8500061035156 0.8698252307044134 -0.11111111111111108 -0.2682459486855403
-17 -12.084314346313477 -260.8500061035156 -0.9267766922712326 -0.06250000000000026 -0.15088834613561708
-16.600000381469727 -12.25 -261.25 -0.4040610109056745 -0.3448876483099801 -0.6897752966199602
-17 -13.850000381469727 -259.0843200683594 -0.8535533845424652 -0.30177669227123294 -0.12500000000000008
-16.600000381469727 -14.25 -259.25 -0.28284270763397207 -0.7828427076339722 -0.2414213538169861
-16.600000381469727 12.25 -261.25 -0.2828427076339722 0.2414213538169861 -0.7828427076339722
-17 12.084314346313477 -260.8500061035156 -0.8828427076339722 0.09999999999999998 -0.2414213538169864
-17 13.850000381469727 -259.0843200683594 -0.8744743296078272 0.2734590768814087 -0.07142857142857138
-16.600000381469727 14.25 -259.25 -0.3535533845424652 0.6868867178757985 -0.4023689230283101
16.600000381469727 12.25 -261.25 0.4040610109056745 0.3448876483099801 -0.6897752966199602
16.600000381469727 14.25 -259.25 0.2828427076339721 0.7828427076339722 -0.2414213538169861
17 13.850000381469727 -259.0843200683594 0.8698252307044134 0.26824594868554047 -0.11111111111111117
17 12.084314346313477 -260.8500061035156 0.9267766922712326 0.06250000000000021 -0.1508883461356175
-17 10.145669937133789 -248.54127502441406 -0.5 0.4932488302389782 0.046955426534017165
-17 9.32372760772705 -245.74200439453125 -0.3999999999999997 0.552047896385193 0.22082118988037114
-17 7.746433258056641 -243.2876739501953 -0.3999999999999999 0.46747355461120615 0.3674062490463258
-17 9.32372760772705 -254.2580108642578 -0.5000000000000001 0.4403333365917206 -0.22716903686523438
-17 10.145669937133789 -251.45872497558594 -0.4 0.5837971925735473 -0.1126930236816405
-17 9.096650299342257E-13 -260.25 -0.5 -0.023719139397144377 -0.49491071701049877
-17 2.887758731842041 -259.8348083496094 -0.4 0.14000893831253053 -0.5778549671173095
-17 5.541568279266357 -258.62286376953125 -0.40000000000000047 0.29713815450668335 -0.515002703666687
-17 -9.32372760772705 -254.2580108642578 -0.5000000000000002 -0.4600399136543276 -0.18401765823364272
-17 -7.746433258056641 -256.7123107910156 -0.39999999999999974 -0.46747355461120627 -0.3674062490463259
-17 -5.541568279266357 -258.62286376953125 -0.39999999999999936 -0.3450272977352144 -0.48422622680664085
-17 -10.145669937133789 -248.54127502441406 -0.5000000000000001 -0.4864976604779565 0.09391085306803396
-17 -10.145669937133789 -251.45872497558594 -0.4 -0.5918985962867741 -0.0563465118408201
-17 9.084097948690306E-13 -239.75 -0.5 0.023719139397144318 0.49491071701049816
-17 -2.887758731842041 -240.16519165039062 -0.4 -0.14000893831253056 0.5778549671173097
-17 -5.541568279266357 -241.3771514892578 -0.4 -0.2971381545066834 0.5150027036666871
-17 7.746433258056641 -256.7123107910156 -0.4000000000000006 0.4301949977874756 -0.41042799949645997
-17 5.541568279266357 -241.3771514892578 -0.4 0.3450272977352143 0.48422622680664074
-17 2.887758731842041 -240.16519165039062 -0.4 0.19462897479534153 0.5618170738220216
-17 -7.746433258056641 -243.2876739501953 -0.4 -0.4301949977874757 0.4104279994964601
-17 -9.32372760772705 -245.74200439453125 -0.40000000000000036 -0.5284000039100648 0.2726028442382813
-17 -2.887758731842041 -259.8348083496094 -0.39999999999999986 -0.1946289747953416 -0.561817073822022
-19 -2.887758731842041 -259.8348083496094 -0.5 -0.1166741152604421 -0.4815458059310913
-19 -2.887758731842041 -240.16519165039062 -0.5 -0.16219081232945123 0.46818089485168457
-19 9.069602165644175E-13 -260.25 -0.5 0.023719139397144318 -0.49491071701049805
-19 9.082155058397212E-13 -239.75 -0.5 -0.023719139397144318 0.49491071701049805
-19 2.887758731842041 -259.8348083496094 -0.5000000000000001 0.16219081232945123 -0.46818089485168457
-19 2.887758731842041 -240.16519165039062 -0.5 0.1166741152604421 0.4815458059310913
-19 5.541568279266357 -258.62286376953125 -0.5000000000000004 0.28752274811267853 -0.4035218556722005
-19 5.541568279266357 -241.3771514892578 -0.5 0.24761512875556946 0.42916891972223914
-19 7.746433258056641 -256.7123107910156 -0.5000000000000002 0.3895612955093384 -0.30617187420527137
-19 7.746433258056641 -243.2876739501953 -0.5 0.358495831489563 0.3420233329137166
-19 9.32372760772705 -254.2580108642578 -0.5 0.4600399136543274 -0.18401765823364258
-19 9.32372760772705 -245.74200439453125 -0.49999999999999967 0.4403333365917206 0.22716903686523438
-19 10.145669937133789 -251.45872497558594 -0.4 0.5918985962867737 -0.05634651184082007
-19 10.145669937133789 -248.54127502441406 -0.24999999999999978 0.7297464907169342 0.14086627960205092
-19 -5.541568279266357 -241.3771514892578 -0.5 -0.28752274811267853 0.4035218556722005
-19 -5.541568279266357 -258.62286376953125 -0.4999999999999996 -0.24761512875556946 -0.42916891972223914
-19 -7.746433258056641 -243.2876739501953 -0.5000000000000001 -0.3895612955093384 0.30617187420527137
-19 -7.746433258056641 -256.7123107910156 -0.4999999999999994 -0.358495831489563 -0.3420233329137166
-19 -9.32372760772705 -245.74200439453125 -0.5000000000000002 -0.4600399136543274 0.18401765823364258
-19 -9.32372760772705 -254.2580108642578 -0.5 -0.4403333365917206 -0.22716903686523438
-19 -10.145669937133789 -248.54127502441406 -0.4 -0.5918985962867737 0.05634651184082056
-19 -10.145669937133789 -251.45872497558594 -0.2500000000000002 -0.7297464907169342 -0.14086627960205064
-10.000000953674316 10.000001907348633 -55.0000114440918 -0.2500098324517239 0.24999607078314057 -0.4999999999999993
9.999999046325684 10.000001907348633 -55.0000114440918 0.16667322157506248 0.33333265788780864 -0.5000000000000007
-10.000000953674316 -9.999998092651367 -55.0000114440918 -0.2000078660326855 -0.39999685657976447 -0.3999999999999992
-10 -9.600000381469727 -55 -0.4000086289723186 4.522548079434801E-06 -0.5999999984105413
-10 9.600000381469727 -55 -0.6000082474311967 -4.5225049676685566E-06 -0.39999999682108317
-11 -11.449999809265137 -55 -0.2651701930959133 -0.15088754147757272 -0.8276650384068489
9.999999046325684 -9.999998092651367 -55.0000114440918 0.20000786596137732 -0.19999918942407932 -0.6000000000000006
11 -11.449999809265137 -55 0.17678208533425138 -0.23927502568170708 -0.8276650384068489
10 -9.600000381469727 -55 0.5000103092888821 4.4610395084262065E-06 -0.5000000019868234
10 9.600000381469727 -55 0.5000071906912732 -2.9739979948656075E-06 -0.5000000026490972
-11 11.449999809265137 -55 -0.15713963140832632 0.21268967790385637 -0.8468133674727545
11 11.449999809265137 -55 0.3030516491505422 0.17244191951138854 -0.8030457581792558
-14 2.167449951171875 5.5948333740234375 -0.5000000000000017 -0.1489885300397863 -0.4693605601787554
-14 -4.1729708338995863E-14 6 -0.4000000000000015 0.036749902367593006 -0.5897838592529286
-14 -4.032962386355671E-14 11.449999809265137 -0.8758484210286821 2.1827777680576737E-15 0.29988742726189904
-14 -2.167449951171875 5.5948333740234375 -0.5000000000000007 0.2061023041605963 -0.4472345709800705
-14 -2.9634780883789062 11.059850692749023 -0.8550947407881418 -0.0882457122206676 0.33860839406649434
-14 -4.042173862457275 4.434053421020508 -0.49999999999999983 0.35374442736307904 -0.34258106350898576
-14 -5.724999904632568 9.915990829467773 -0.8549081981182098 -0.17086748778819927 0.3055359025796271
-14 -5.3709797859191895 2.6744301319122314 -0.4999999999999991 0.4536114235719054 -0.19166009624798933
-14 -8.096372604370117 8.096372604370117 -0.8545930286248524 -0.2425901293754569 0.2527329276005442
-14 -5.974405288696289 0.5536101460456848 -0.6249999999999989 0.3691617473959936 -0.011140782386062316
-14 -9.915990829467773 5.724999904632568 -0.8249713778495789 -0.3585778951644891 0.22023296356201288
-14 -11.059850692749023 2.9634780883789062 -0.8242582321166992 -0.4030879855155936 0.12274837493896662
-14 -11.449999809265137 2.8845887267356374E-13 -0.8742621030126299 -0.3016543303217188 0.02538498597485906
-14 -5.77095365524292 -1.6419779062271118 -0.39999999999999775 0.5572121500968946 0.19674901068210687
-14 -4.7881035804748535 -3.6158077716827393 -0.5714285714285697 0.3203649350575055 0.27482230748449193
-14 -3.158592939376831 -5.101302623748779 -0.3999999999999978 0.27923579216003525 0.5207906723022473
-14 -10.207359313964844 -52 -0.8901650384068489 -0.12499999999999828 -0.2133883461356145
-14 -11.449999809265137 -50.75735855102539 -0.8242640614509583 -0.3828427076339709 -0.09999999999999777
-14 -1.1024971008300781 -5.897838592529297 -0.39999999999999825 0.0722483336925542 0.5864944458007825
-14 1.1024971008300781 -5.897838592529297 -0.4999999999999991 -0.12041388948758198 0.47749074300130356
-14 10.207359313964844 -52 -0.8535533845424652 0.12500000000000208 -0.3017766922712311
-14 3.158592939376831 -5.101302623748779 -0.3999999999999997 -0.3417265832424152 0.4820980072021496
-14 4.7881035804748535 -3.6158077716827393 -0.571428571428572 -0.35200317416872157 0.23292651346751816
-14 5.77095365524292 -1.6419779062271118 -0.40000000000000135 -0.5773263216018673 0.12605501413345485
-14 11.449999809265137 2.786070256877854E-13 -0.8742621030126299 0.30165433032172145 0.025384985974858897
-14 11.449999809265137 -50.75735855102539 -0.8242640614509583 0.3828427076339737 -0.09999999999999797
-14 5.974405288696289 0.5536101460456848 -0.6250000000000012 -0.36492318660020706 -0.05688220076262816
-14 11.059850692749023 2.9634780883789062 -0.8242582321166992 0.4030879855155952 0.12274837493896579
-14 9.915990829467773 5.724999904632568 -0.8249713778495789 0.35857789516449046 0.22023296356201258
-14 8.096372604370117 8.096372604370117 -0.8545930286248524 0.24259012937545887 0.2527329276005437
-14 5.3709797859191895 2.6744301319122314 -0.5000000000000019 -0.4263100127379086 -0.2464887003103881
-14 5.724999904632568 9.915990829467773 -0.8549081981182098 0.1708674877882015 0.30553590257962665
-14 4.042173862457275 4.434053421020508 -0.500000000000002 -0.3084802528222391 -0.3838448226451861
-14 2.9634780883789062 11.059850692749023 -0.8550947407881418 0.08824571222066971 0.338608394066494
-11 -14.449999809265137 -52 -0.3030457581792579 -0.7316171867506844 -0.3448876483099795
-11 -14.449999809265137 2.657669548843111E-13 -0.4237456679344189 -0.8222874402999878 0.04121605306863914
-11 14.449999809265137 -52 -0.4242640614509576 0.6828427076339723 -0.3414213538169857
-11 14.449999809265137 2.710974077602818E-13 -0.3026754770960109 0.8720208661896841 0.04665956326893461
-11 14.030109405517578 3.45811128616333 -0.3523644407590213 0.8222683966159821 0.21002864465117455
-11 12.794839859008789 6.715250015258789 -0.35200089216232106 0.7475095291932423 0.4031001180410385
-11 10.815979957580566 9.582122802734375 -0.35169611374536947 0.628096396724383 0.5723618020613988
-11 8.208535194396973 11.89211654663086 -0.3514593938986441 0.4711349854866663 0.7076679070790608
-11 5.124040603637695 13.510984420776367 -0.3512976964314761 0.2859879980484644 0.8009025355180104
-11 1.7417550086975098 14.344643592834473 -0.3512156804402654 0.08371342470248784 0.8464686373869578
-11 -1.7417550086975098 14.344643592834473 -0.35121568044026585 -0.12359936783710948 0.8416256109873453
-11 -5.124040603637695 13.510984420776367 -0.35129769643147724 -0.32355591654777527 0.7866548995176951
-11 -8.208535194396973 11.89211654663086 -0.3514593938986459 -0.5042015661795933 0.6848436991373698
-11 -10.815979957580566 9.582122802734375 -0.3516961137453718 -0.6547399312257767 0.5422874639431635
-11 -12.794839859008789 6.715250015258789 -0.3520008921623237 -0.7661815881729126 0.3675234764814377
-11 -14.030109405517578 3.45811128616333 -0.3523644407590242 -0.8318838377793629 0.17101727426052094
11 14.449999809265137 -52 0.30304575817925683 0.7316171867506844 -0.34488764830998037
11 14.449999809265137 2.1083658365179947E-13 0.423745667934419 0.8222874402999878 0.04121605306863717
11 -14.449999809265137 2.055061307758288E-13 0.30267547709601106 -0.8720208661896841 0.0466595632689339
11 -14.030109405517578 3.45811128616333 0.35236444075902196 -0.8222683966159821 0.21002864465117455
11 -12.794839859008789 6.715250015258789 0.3520008921623224 -0.7475095291932423 0.4031001180410385
11 -10.815979957580566 9.582122802734375 0.35169611374537135 -0.628096396724383 0.5723618020613988
11 -8.208535194396973 11.89211654663086 0.35145939389864633 -0.4711349854866663 0.7076679070790608
11 -5.124040603637695 13.510984420776367 0.3512976964314787 -0.2859879980484644 0.8009025355180104
11 -1.7417550086975098 14.344643592834473 0.3512156804402682 -0.0837134247024838 0.8464686373869578
11 1.7417550086975098 14.344643592834473 0.35121568044026846 0.12359936783711198 0.8416256109873453
11 5.124040603637695 13.510984420776367 0.3512976964314796 0.32355591654777527 0.7866548995176951
11 8.208535194396973 11.89211654663086 0.351459393898648 0.5042015661795933 0.6848436991373698
11 10.815979957580566 9.582122802734375 0.35169611374537346 0.6547399312257767 0.5422874639431635
11 12.794839859008789 6.715250015258789 0.3520008921623249 0.7661815881729126 0.3675234764814377
11 14.030109405517578 3.45811128616333 0.35236444075902473 0.8318838377793629 0.17101727426052094
14 -2.167449951171875 5.5948333740234375 0.4999999999999991 0.14898853003978593 -0.46936056017875816
14 -1.259540025446218E-13 6 0.39999999999999825 -0.03674990236759317 -0.5897838592529311
14 -1.2455391806918265E-13 11.449999809265137 0.8758484210286821 -1.9012569296705806E-15 0.2998874272618957
14 2.167449951171875 5.5948333740234375 0.4999999999999981 -0.20610230416059672 -0.44723457098007363
14 2.9634780883789062 11.059850692749023 0.8550947407881418 0.0882457122206671 0.33860839406649107
14 4.042173862457275 4.434053421020508 0.499999999999998 -0.35374442736307954 -0.3425810635089891
14 5.724999904632568 9.915990829467773 0.8549081981182098 0.1708674877881982 0.30553590257962365
14 5.3709797859191895 2.6744301319122314 0.4999999999999981 -0.4536114235719069 -0.19166009624799252
14 8.096372604370117 8.096372604370117 0.8545930286248524 0.24259012937545538 0.25273292760054117
14 5.974405288696289 0.5536101460456848 0.6249999999999989 -0.3691617473959953 -0.011140782386066285
14 9.915990829467773 5.724999904632568 0.8249713778495789 0.358577895164488 0.22023296356201058
14 11.059850692749023 2.9634780883789062 0.8242582321166992 0.40308798551559266 0.12274837493896373
14 11.449999809265137 2.019114313678988E-13 0.8742621030126299 0.30165433032171807 0.025384985974855
14 5.77095365524292 -1.6419779062271118 0.39999999999999886 -0.5572121500968952 0.19674901068210504
14 4.7881035804748535 -3.6158077716827393 0.5714285714285712 -0.32036493505750585 0.2748223074844891
14 3.158592939376831 -5.101302623748779 0.4000000000000006 -0.27923579216003547 0.5207906723022451
14 10.207359313964844 -52 0.8901650384068489 0.12499999999999789 -0.2133883461356179
14 11.449999809265137 -50.75735855102539 0.8242640614509583 0.38284270763397094 -0.10000000000000174
14 1.1024971008300781 -5.897838592529297 0.40000000000000135 -0.07224833369254915 0.5864944458007803
14 -1.1024971008300781 -5.897838592529297 0.5000000000000016 0.12041388948758414 0.47749074300130073
14 -10.207359313964844 -52 0.8535533845424652 -0.12500000000000244 -0.301776692271234
14 -3.158592939376831 -5.101302623748779 0.40000000000000235 0.34172658324241534 0.4820980072021473
14 -4.7881035804748535 -3.6158077716827393 0.5714285714285731 0.35200317416872084 0.2329265134675148
14 -5.77095365524292 -1.6419779062271118 0.4000000000000021 0.5773263216018665 0.12605501413345238
14 -11.449999809265137 2.1176327835367714E-13 0.8742621030126299 -0.3016543303217226 0.02538498597485541
14 -11.449999809265137 -50.75735855102539 0.8242640614509583 -0.382842707633974 -0.10000000000000152
14 -5.974405288696289 0.5536101460456848 0.6250000000000009 0.36492318660020584 -0.05688220076263073
14 -11.059850692749023 2.9634780883789062 0.8242582321166992 -0.4030879855155962 0.12274837493896432
14 -9.915990829467773 5.724999904632568 0.8249713778495789 -0.35857789516449157 0.22023296356201094
14 -8.096372604370117 8.096372604370117 0.8545930286248524 -0.24259012937545976 0.2527329276005417
14 -5.3709797859191895 2.6744301319122314 0.5000000000000007 0.42631001273790803 -0.24648870031039016
14 -5.724999904632568 9.915990829467773 0.8549081981182098 -0.17086748778820252 0.3055359025796243
14 -4.042173862457275 4.434053421020508 0.49999999999999983 0.30848025282223823 -0.38384482264518854
14 -2.9634780883789062 11.059850692749023 0.8550947407881418 -0.08824571222067064 0.33860839406649135
11 -14.449999809265137 -52 0.42426406145095685 -0.6828427076339723 -0.34142135381698613
3 0 1 2
3 2 1 3
3 2 3 4
3 4 3 5
3 4 5 6
3 6 5 7
3 7 5 8
3 7 8 9
3 9 8 0
3 0 8 1
3 10 11 12
3 12 11 13
3 12 13 14
3 14 13 15
3 14 15 16
3 16 15 17
3 16 17 18
3 18 17 19
3 18 19 20
3 18 20 21
3 21 20 22
3 21 22 23
3 23 22 10
3 23 10 12
3 24 25 21
3 21 25 18
3 26 27 18
3 18 27 16
3 16 27 28
3 16 28 14
3 29 30 26
3 26 30 27
3 27 30 31
3 27 31 28
3 0 2 32
3 32 2 33
3 33 2 4
3 33 4 34
3 29 32 30
3 30 32 33
3 30 33 31
3 31 33 34
3 9 0 35
3 35 0 36
3 0 32 36
3 36 32 37
3 29 38 32
3 32 38 37
3 26 39 29
3 29 39 38
3 18 25 26
3 26 25 39
3 21 23 40
3 40 23 41
3 41 23 12
3 41 12 42
3 43 40 44
3 44 40 41
3 44 41 45
3 45 41 42
3 46 47 9
3 9 47 7
3 7 47 48
3 7 48 6
3 43 44 46
3 46 44 47
3 47 44 45
3 47 45 48
3 9 35 46
3 46 35 49
3 43 46 50
3 50 46 49
3 40 43 51
3 51 43 50
3 21 40 24
3 24 40 51
3 49 35 50
3 50 35 36
3 50 36 38
3 38 36 37
3 39 25 38
3 38 25 24
3 38 24 50
3 50 24 51
3 52 53 14
3 14 53 12
3 4 6 54
3 54 6 55
3 4 54 34
3 34 54 56
3 31 34 57
3 57 34 56
3 28 31 58
3 58 31 57
3 14 28 52
3 52 28 58
3 6 48 55
3 55 48 59
3 45 60 48
3 48 60 59
3 42 61 45
3 45 61 60
3 12 53 42
3 42 53 61
3 56 54 57
3 57 54 55
3 57 55 60
3 60 55 59
3 61 53 60
3 60 53 52
3 60 52 57
3 57 52 58
3 62 63 64
3 64 63 65
3 65 63 66
3 65 66 67
3 67 66 68
3 67 68 69
3 69 68 70
3 69 70 71
3 71 70 72
3 71 72 73
3 73 72 74
3 73 74 75
3 75 74 76
3 75 76 77
3 77 76 78
3 77 78 79
3 79 78 80
3 79 80 81
3 81 80 82
3 81 82 83
3 84 71 85
3 85 71 73
3 85 73 86
3 86 73 75
3 86 75 87
3 87 75 77
3 87 77 88
3 88 77 79
3 88 79 89
3 89 79 81
3 89 81 90
3 90 81 83
3 90 83 91
3 91 83 82
3 91 82 92
3 92 82 80
3 92 80 93
3 93 80 78
3 93 78 94
3 94 78 76
3 94 76 95
3 95 76 74
3 95 74 96
3 96 74 72
3 96 72 97
3 97 72 70
3 97 70 98
3 98 70 68
3 98 68 99
3 99 68 66
3 99 66 100
3 100 66 63
3 100 63 101
3 101 63 62
3 101 62 102
3 102 62 64
3 102 64 103
3 103 64 65
3 103 65 104
3 104 65 67
3 104 67 105
3 105 67 69
3 105 69 84
3 84 69 71
3 11 10 106
3 106 10 107
3 108 109 107
3 107 109 106
3 110 111 112
3 112 111 113
3 113 111 107
3 107 111 108
3 114 111 115
3 115 111 110
3 19 17 116
3 116 17 117
3 114 115 117
3 117 115 116
3 114 117 118
3 118 117 119
3 119 120 118
3 118 120 121
3 121 109 118
3 118 109 108
3 116 122 19
3 19 122 123
3 19 123 124
3 115 125 116
3 116 125 126
3 116 126 122
3 110 127 115
3 115 127 128
3 115 128 129
3 112 130 110
3 110 130 131
3 110 131 132
3 20 133 112
3 112 133 134
3 112 134 130
3 19 135 20
3 20 135 136
3 20 136 137
3 129 138 115
3 115 138 125
3 124 139 19
3 19 139 140
3 19 140 135
3 137 141 20
3 20 141 142
3 20 142 133
3 132 143 110
3 110 143 127
3 84 85 106
3 106 85 86
3 106 86 11
3 11 86 87
3 11 87 88
3 88 89 11
3 11 89 90
3 11 90 91
3 11 91 13
3 13 91 92
3 13 92 93
3 93 94 13
3 13 94 95
3 13 95 120
3 120 95 96
3 120 96 97
3 97 98 120
3 120 98 121
3 121 98 99
3 121 99 100
3 100 101 121
3 121 101 102
3 121 102 109
3 109 102 103
3 109 103 104
3 104 105 109
3 109 105 106
3 106 105 84
3 13 120 15
3 15 120 119
3 144 145 146
3 146 145 147
3 146 147 148
3 148 147 149
3 148 149 150
3 150 149 151
3 150 151 152
3 152 151 153
3 152 153 154
3 154 153 155
3 154 155 156
3 156 155 157
3 145 144 158
3 158 144 159
3 158 159 160
3 160 159 161
3 160 161 162
3 162 161 163
3 162 163 164
3 164 163 165
3 148 128 146
3 146 128 127
3 146 127 144
3 144 127 143
3 144 143 159
3 159 143 132
3 159 132 161
3 161 132 131
3 161 131 163
3 163 131 130
3 163 130 165
3 165 130 134
3 165 134 164
3 164 134 133
3 164 133 162
3 162 133 142
3 162 142 160
3 160 142 141
3 160 141 158
3 158 141 137
3 158 137 145
3 145 137 136
3 145 136 147
3 147 136 135
3 147 135 149
3 149 135 140
3 149 140 151
3 151 140 139
3 151 139 153
3 153 139 124
3 153 124 155
3 155 124 123
3 155 123 157
3 157 123 122
3 157 122 156
3 156 122 126
3 156 126 154
3 154 126 125
3 154 125 152
3 152 125 138
3 152 138 150
3 150 138 129
3 150 129 148
3 148 129 128
3 111 114 108
3 108 114 118
3 22 113 10
3 10 113 107
3 113 22 112
3 112 22 20
3 117 17 119
3 119 17 15
3 166 167 1
3 1 167 3
3 168 169 8
3 8 169 170
3 8 170 1
3 1 170 166
3 171 172 173
3 173 172 174
3 173 174 175
3 176 169 171
3 171 169 168
3 171 168 172
3 177 167 176
3 176 167 166
3 176 166 170
3 167 177 175
3 175 177 173
3 170 169 176
3 178 179 180
3 180 179 181
3 180 181 182
3 182 181 183
3 182 183 184
3 184 183 185
3 184 185 186
3 186 185 187
3 186 187 188
3 188 187 189
3 189 187 190
3 190 187 191
3 190 191 192
3 193 194 192
3 192 194 195
3 192 195 190
3 193 196 194
3 194 196 197
3 194 197 198
3 198 197 199
3 198 199 200
3 201 202 200
3 200 202 203
3 200 203 198
3 201 204 202
3 202 204 205
3 205 204 206
3 206 204 207
3 207 204 208
3 207 208 209
3 209 208 210
3 209 210 211
3 211 210 178
3 211 178 180
3 171 212 194
3 194 212 195
3 212 213 195
3 195 213 190
3 176 198 214
3 214 198 203
3 214 203 215
3 215 203 202
3 215 202 216
3 216 202 205
3 216 205 217
3 217 205 206
3 217 206 218
3 218 206 207
3 218 207 219
3 219 207 209
3 219 209 220
3 220 209 211
3 220 211 221
3 221 211 180
3 221 180 222
3 222 180 182
3 222 182 223
3 223 182 184
3 223 184 224
3 224 184 186
3 224 186 225
3 225 186 188
3 225 188 226
3 226 188 189
3 226 189 227
3 227 189 190
3 227 190 213
3 176 171 198
3 198 171 194
3 214 228 176
3 176 228 177
3 229 228 215
3 215 228 214
3 213 230 227
3 227 230 231
3 227 231 226
3 226 231 232
3 226 232 225
3 225 232 233
3 225 233 224
3 224 233 234
3 224 234 223
3 223 234 235
3 223 235 222
3 222 235 236
3 222 236 221
3 221 236 237
3 221 237 220
3 220 237 238
3 220 238 219
3 219 238 239
3 219 239 218
3 218 239 240
3 218 240 217
3 217 240 241
3 217 241 216
3 216 241 242
3 216 242 215
3 215 242 229
3 243 244 245
3 245 244 246
3 245 246 247
3 247 246 248
3 247 248 249
3 249 248 250
3 249 250 251
3 251 250 252
3 251 252 253
3 253 252 254
3 254 252 255
3 255 252 256
3 255 256 257
3 258 259 257
3 257 259 260
3 257 260 255
3 258 261 259
3 259 261 262
3 259 262 263
3 263 262 264
3 263 264 265
3 266 267 265
3 265 267 268
3 265 268 263
3 266 269 267
3 267 269 270
3 270 269 271
3 271 269 272
3 272 269 273
3 272 273 274
3 274 273 275
3 274 275 276
3 276 275 243
3 276 243 245
3 171 173 212
3 212 173 277
3 277 230 212
3 212 230 213
3 173 263 277
3 277 263 268
3 277 268 230
3 230 268 267
3 178 244 179
3 179 244 243
3 179 243 181
3 181 243 275
3 181 275 183
3 183 275 273
3 183 273 185
3 185 273 269
3 185 269 187
3 187 269 266
3 187 266 191
3 191 266 265
3 191 265 192
3 192 265 264
3 192 264 193
3 193 264 262
3 193 262 196
3 196 262 261
3 196 261 197
3 197 261 258
3 197 258 199
3 199 258 257
3 199 257 200
3 200 257 256
3 200 256 201
3 201 256 252
3 201 252 204
3 204 252 250
3 204 250 208
3 208 250 248
3 208 248 210
3 210 248 246
3 210 246 178
3 178 246 244
3 177 228 259
3 259 228 260
3 228 229 260
3 260 229 255
3 230 267 231
3 231 267 270
3 231 270 232
3 232 270 271
3 232 271 233
3 233 271 272
3 233 272 234
3 234 272 274
3 234 274 235
3 235 274 276
3 235 276 236
3 236 276 245
3 236 245 237
3 237 245 247
3 237 247 238
3 238 247 249
3 238 249 239
3 239 249 251
3 239 251 240
3 240 251 253
3 240 253 241
3 241 253 254
3 241 254 242
3 242 254 255
3 242 255 229
3 173 177 263
3 263 177 259
3 172 168 5
3 5 168 8
3 167 175 3
3 3 175 5
3 5 175 174
3 5 174 172
